<?xml version="1.0" standalone="no"?>
<!DOCTYPE svg PUBLIC "-//W3C//DTD SVG 1.1//EN" "http://www.w3.org/Graphics/SVG/1.1/DTD/svg11.dtd" >
<svg xmlns="http://www.w3.org/2000/svg">
<metadata></metadata>
<defs>
<font id="nexabold" horiz-adv-x="1302" >
<font-face units-per-em="2048" ascent="1501" descent="-547" />
<missing-glyph horiz-adv-x="509" />
<glyph horiz-adv-x="0" />
<glyph horiz-adv-x="0" />
<glyph unicode="&#xd;" horiz-adv-x="659" />
<glyph unicode=" "  horiz-adv-x="509" />
<glyph unicode="&#x09;" horiz-adv-x="509" />
<glyph unicode="&#xa0;" horiz-adv-x="509" />
<glyph unicode="!" horiz-adv-x="557" d="M141 125q0 68 42 100.5t93.5 32.5t93.5 -32.5t42 -100.5t-42 -100.5t-93.5 -32.5t-93.5 32.5t-42 100.5zM168 358v1080h221v-1080h-221z" />
<glyph unicode="&#x22;" horiz-adv-x="827" d="M143 889v543h195v-543h-195zM489 889v543h195v-543h-195z" />
<glyph unicode="#" horiz-adv-x="1398" d="M76 295v201h207l108 426h-170v194h217l78 318h229l-77 -318h270l80 318h227l-78 -318h156v-196h-205l-110 -424h170v-201h-215l-72 -295h-229l71 295h-272l-72 -295h-227l71 295h-157zM494 483h297l114 451h-297z" />
<glyph unicode="$" horiz-adv-x="1392" d="M72 289l194 102q25 -53 71 -93t106.5 -67.5t127 -42t129.5 -14.5q68 0 136.5 11.5t123 38t88 72.5t33.5 116q0 57 -32.5 97t-86 65.5t-124 42t-146.5 26.5q-106 14 -207.5 34.5t-181.5 63.5t-129 117t-49 195q0 100 42 173.5t109.5 124t154.5 78t175 37.5v185h219v-185 q66 -8 126.5 -23.5t114.5 -44t99 -72.5t82 -109l-184 -99q-23 39 -60.5 69t-86 50t-101.5 31.5t-108 11.5q-63 0 -127 -12.5t-114 -40t-81 -70.5t-31 -102q0 -55 30 -90t79 -56.5t114.5 -34t137.5 -22.5q111 -16 218 -41t193 -72t139.5 -125.5t53.5 -201.5q0 -104 -42 -182 t-111.5 -132.5t-158.5 -84t-184 -36.5v-204h-217v196q-78 6 -157.5 27.5t-152.5 59.5t-131.5 95.5t-92.5 137.5z" />
<glyph unicode="%" horiz-adv-x="1521" d="M74 1141q0 80 35.5 149.5t107.5 115.5t178 46t178 -46t108 -115.5t36 -149.5t-35 -149.5t-107.5 -116t-179.5 -46.5q-106 0 -178 46.5t-107.5 116t-35.5 149.5zM199 0l927 1438h203l-926 -1438h-204zM233 1141.5q0 -60.5 41 -109.5t123 -49q80 0 120 49t39 109.5 t-42 109.5t-121 49t-120 -49t-40 -109.5zM805 297q0 80 36 149.5t107.5 115.5t177.5 46t178 -46t109 -115.5t36 -149.5t-36 -149.5t-107.5 -115.5t-179.5 -46q-106 0 -177.5 46t-107.5 115.5t-36 149.5zM965 298q0 -60 41 -109.5t122 -49.5q80 0 120 49.5t39 109.5 t-42 109.5t-121 49.5t-119.5 -49.5t-39.5 -109.5z" />
<glyph unicode="&#x26;" horiz-adv-x="1439" d="M109 422q0 51 18 99t50 90t75 74t94 48q-96 39 -148.5 123t-52.5 178q0 106 44 185t118 130.5t169 77t198 25.5q92 0 182 -18.5t162 -63.5t118 -120.5t46 -190.5h-215q0 57 -24.5 96t-65.5 61.5t-95.5 31.5t-113.5 9q-84 0 -141.5 -20t-93.5 -52t-50 -72t-14 -79 q0 -61 30.5 -102t75.5 -64.5t97.5 -34t95.5 -10.5h655v-182h-121v-233q0 -78 32 -134.5t109 -56.5v-221q-41 -2 -80.5 5t-75.5 28.5t-63.5 58.5t-42.5 94q-66 -102 -176 -153.5t-252 -51.5q-111 0 -210 28t-173.5 84t-117.5 139t-43 194zM334 420q0 -59 25.5 -103.5 t69.5 -73t104.5 -43t130.5 -14.5q43 0 99 11.5t105.5 37t84 67.5t34.5 106v233h-332q-82 0 -142 -20.5t-100 -52t-59.5 -70.5t-19.5 -78z" />
<glyph unicode="'" horiz-adv-x="475" d="M141 891v543h193v-543h-193z" />
<glyph unicode="(" horiz-adv-x="708" d="M84 627q-2 133 26.5 266t87 255t148.5 228.5t211 186.5l107 -146q-180 -137 -269.5 -337.5t-91.5 -424.5q0 -236 89 -430t272 -334l-115 -157q-115 76 -201 177t-144.5 218t-88 244t-31.5 254z" />
<glyph unicode=")" horiz-adv-x="706" d="M43 1436l109 145q121 -80 211 -186.5t148 -228.5t86 -255t26 -264q-2 -127 -32 -255t-87.5 -244.5t-143.5 -218t-202 -177.5l-111 160q182 141 270.5 333.5t85.5 428.5q0 223 -90 423.5t-270 338.5z" />
<glyph unicode="*" horiz-adv-x="815" d="M100 1178l50 161l182 -67l-8 186h165l-16 -188l195 69l45 -161l-191 -41l135 -156l-133 -98l-116 172l-119 -172l-133 98l131 156z" />
<glyph unicode="+" horiz-adv-x="1026" d="M90 610v197h316v315h210v-315h318v-197h-318v-319h-210v319h-316z" />
<glyph unicode="," horiz-adv-x="503" d="M121 100q0 57 41 88t89 31t89 -31t41 -94q0 -12 -3 -25.5t-13.5 -43t-29 -82t-46.5 -140.5h-127l45 195q-39 8 -62.5 33.5t-23.5 68.5z" />
<glyph unicode="-" horiz-adv-x="1011" d="M133 498v190h746v-190h-746z" />
<glyph unicode="." horiz-adv-x="497" d="M119 113q0 63 41 96t89 33t89 -33t41 -96q0 -66 -41 -98.5t-89 -32.5t-89 32.5t-41 98.5z" />
<glyph unicode="/" horiz-adv-x="1013" d="M51 -168l703 1733h209l-705 -1733h-207z" />
<glyph unicode="0" horiz-adv-x="1433" d="M117 592v250q0 156 51 272.5t136 194t192.5 116.5t220.5 39t220 -39t191 -116.5t136.5 -194.5t52.5 -272v-250q0 -156 -52.5 -272.5t-136.5 -194.5t-191.5 -117t-219.5 -39q-113 0 -220.5 39t-192.5 117t-136 194.5t-51 272.5zM346 592q0 -102 32 -179t84 -128.5 t118.5 -77t136.5 -25.5t136.5 25.5t118.5 77t83.5 128t31.5 179.5v250q0 100 -31.5 176t-83.5 126t-120 75.5t-137 25.5q-70 0 -135.5 -24.5t-117.5 -75.5t-84 -127t-32 -176v-250z" />
<glyph unicode="1" horiz-adv-x="890" d="M104 0v190h258v963l-245 -70v201l473 150v-1244h250v-190h-736z" />
<glyph unicode="2" horiz-adv-x="1382" d="M119 0v362q0 123 51 204t132 130t184.5 68.5t207.5 19.5q49 0 108.5 9.5t112 35t88 69.5t35.5 114q0 68 -26.5 112.5t-72.5 72.5t-105.5 41t-124.5 15q-61 0 -124 -12t-114 -38.5t-83 -69.5t-34 -107h-229q8 123 62.5 205t136.5 131t182 69.5t203 20.5q100 0 199.5 -21.5 t178 -72.5t128 -135t49.5 -207q0 -129 -48.5 -213t-127 -133t-181 -68.5t-211.5 -19.5q-53 0 -115.5 -8.5t-115.5 -32t-89 -66.5t-36 -113v-147h924v-215h-1145z" />
<glyph unicode="3" horiz-adv-x="1380" d="M100 406h232q0 -66 35.5 -108t89 -66.5t115 -35t110.5 -10.5q68 0 130 14.5t111.5 44t79 72.5t29.5 103q0 39 -15.5 78t-54 70.5t-104.5 52t-166 20.5h-227v188h213q68 0 128 12.5t105 38t73 63.5t28 89q0 37 -17.5 76t-55.5 69.5t-100.5 51t-154.5 20.5q-53 0 -111.5 -9 t-107.5 -32.5t-81 -63.5t-32 -100h-227q0 115 51 194t132 127t181.5 68.5t196.5 20.5q106 0 206.5 -26.5t177.5 -79t123 -132t46 -184.5q0 -104 -60.5 -186t-162.5 -111q127 -35 191.5 -117.5t64.5 -195.5q0 -121 -51.5 -205t-134 -136t-189 -76.5t-217.5 -24.5 q-100 0 -202.5 21.5t-186.5 70.5t-137.5 131t-53.5 203z" />
<glyph unicode="4" horiz-adv-x="1355" d="M45 492l786 940h265v-934h170v-213h-170v-285h-228v285h-794zM301 498h567v667z" />
<glyph unicode="5" horiz-adv-x="1341" d="M111 422h229q0 -68 34 -111t85 -67.5t112.5 -33.5t116.5 -9q66 0 126 15t106.5 47t74 80t27.5 114q0 61 -24.5 107t-69.5 76t-105.5 45t-132.5 15h-547v732h1028v-215h-804v-304h323q123 0 225.5 -27.5t177 -85t116.5 -142.5t42 -201q0 -115 -44 -202t-119.5 -147.5 t-178 -91t-219.5 -30.5q-113 0 -217 21.5t-184 71.5t-129 134t-49 209z" />
<glyph unicode="6" horiz-adv-x="1419" d="M141 451v557q0 115 50.5 199.5t132.5 140t186 83t213 27.5q115 0 218 -23.5t181 -73.5t125 -127t49 -183h-225q-2 51 -30.5 90t-77 65.5t-108.5 40t-126 13.5t-130 -14.5t-115.5 -45.5t-83 -77.5t-31.5 -112.5v-260q29 43 71.5 73.5t92 51t100.5 29.5t100 9 q106 0 211 -24.5t187.5 -79.5t134 -144.5t51.5 -218.5q0 -121 -51.5 -207.5t-134 -145t-188 -86t-212.5 -27.5q-109 0 -214 27.5t-189 86t-135.5 147.5t-51.5 210zM371 446q0 -68 30.5 -116.5t80.5 -80.5t114.5 -47.5t134.5 -15.5q68 0 131.5 14.5t113.5 46.5t80.5 81 t30.5 118q0 66 -28.5 116t-77.5 84t-113.5 50.5t-134.5 16.5t-135.5 -16.5t-116.5 -50.5t-80.5 -83t-29.5 -117z" />
<glyph unicode="7" horiz-adv-x="1150" d="M63 1214v220h1051l14 -131l-677 -1303h-265l633 1214h-756z" />
<glyph unicode="8" horiz-adv-x="1439" d="M106 418q2 100 67 190t179 131q-100 47 -154.5 122t-54.5 173q0 109 48.5 190t128 133t183 77.5t214.5 25.5t216 -25.5t186 -77.5t131 -133t50 -190q0 -90 -56 -168t-161 -118q57 -20 103.5 -56.5t78 -80.5t49 -94t17.5 -99q2 -123 -49 -209t-136 -139.5t-196.5 -78 t-232.5 -24.5q-117 0 -226.5 23.5t-195.5 78t-138.5 140.5t-50.5 209zM346 416q0 -53 28.5 -97.5t80 -75t119 -48t145.5 -17.5t145.5 16.5t118.5 47t80 74.5t29 100q0 61 -34 106t-87 73t-119.5 41t-132.5 13q-63 0 -129 -13t-120 -41t-89 -73t-35 -106zM377 1040 q2 -55 32.5 -97t79 -69.5t108.5 -41t122 -13.5q63 0 123.5 13.5t108.5 41t79 69.5t31 97q2 55 -26.5 97.5t-77 72t-111 44t-129.5 14.5q-74 0 -136.5 -16.5t-107.5 -47t-70.5 -73t-25.5 -91.5z" />
<glyph unicode="9" horiz-adv-x="1421" d="M104 991q0 119 51.5 207t134.5 146.5t188.5 86t211.5 27.5t213 -28.5t190 -87t135 -146.5t52 -209v-557q0 -115 -50 -200t-131 -140t-185.5 -82.5t-213.5 -27.5q-115 0 -219 23.5t-185 72.5t-129 126t-50 185h231q0 -51 31 -90t80 -65.5t111.5 -40t127.5 -13.5 q55 0 119 16.5t116 47t87 78t35 108.5v260q-29 -43 -72 -74.5t-92 -51t-101.5 -30t-101.5 -10.5q-106 0 -210.5 24.5t-187.5 80t-134.5 145.5t-51.5 219zM332 991q0 -68 29.5 -118t78.5 -82.5t113.5 -49t134.5 -16.5t135.5 16.5t115.5 50t81 83t31 116.5q0 68 -31 117 t-82 81t-115.5 47t-132.5 15t-132 -14t-114.5 -46t-81 -81t-30.5 -119z" />
<glyph unicode=":" horiz-adv-x="524" d="M133 113q0 63 40 95t89 32t89 -32t40 -95t-40 -95t-89 -32t-89 32t-40 95zM133 711q0 63 40 96t89 33t89 -33t40 -96t-40 -95t-89 -32t-89 32t-40 95z" />
<glyph unicode=";" horiz-adv-x="536" d="M137 100q0 57 40 88t89 31t89 -31t40 -94q0 -12 -3 -25.5t-12 -43t-27.5 -82t-47.5 -140.5h-129l45 195q-37 8 -60.5 33.5t-23.5 68.5zM141 711q0 63 40 96t89 33t89 -33t40 -96t-40 -95t-89 -32t-89 32t-40 95z" />
<glyph unicode="&#x3c;" horiz-adv-x="794" d="M78 625v43l463 444l135 -145l-340 -322l342 -319l-137 -148z" />
<glyph unicode="=" horiz-adv-x="1153" d="M143 317v195h867v-195h-867zM143 766v197h867v-197h-867z" />
<glyph unicode="&#x3e;" horiz-adv-x="794" d="M115 315l344 330l-342 330l137 137l461 -444v-43l-461 -447z" />
<glyph unicode="?" horiz-adv-x="1241" d="M70 1012q0 115 46 196.5t121.5 135t175 78t203.5 24.5q106 0 206 -23.5t176.5 -75t122.5 -133t44 -198.5q0 -109 -40 -175.5t-97 -108.5t-120.5 -66.5t-108.5 -51.5q-35 -16 -58.5 -35.5t-38 -46t-19.5 -63.5t-5 -88l-227 2q0 104 18 174t52 116t79 74.5t100 51.5 q41 18 82 34.5t74 40t53.5 57.5t20.5 87q0 70 -29 114t-75 69.5t-102 34.5t-112 9q-55 0 -111.5 -13t-102.5 -42t-75.5 -73t-29.5 -105h-223zM422 133q0 72 45 107.5t98 35.5t98.5 -35.5t45.5 -107.5t-45.5 -106.5t-98.5 -34.5t-98 34.5t-45 106.5z" />
<glyph unicode="@" horiz-adv-x="1871" d="M96 530q0 193 67.5 346.5t183.5 260t269.5 163t325.5 56.5q182 0 338 -51.5t269.5 -152.5t177 -252.5t63.5 -354.5q0 -117 -23.5 -212t-71.5 -162t-120 -103.5t-166 -36.5q-55 0 -104.5 43t-49.5 135q-23 -47 -60.5 -83t-82.5 -59.5t-93 -35t-87 -11.5q-111 0 -206 38 t-166 105.5t-110.5 160t-39.5 202.5q0 113 41 207t111.5 162t164.5 105.5t203 37.5q47 0 94 -13t90 -36.5t78 -55.5t55 -71l13 123l165 -20v-717q0 -49 33 -49q41 0 69.5 28.5t47 76.5t27 110.5t8.5 130.5q0 172 -46 291.5t-133.5 196.5t-211 112t-277.5 35q-133 0 -253 -44 t-210 -128t-143 -205t-53 -273q0 -170 55 -289.5t146 -194.5t209 -109.5t241 -34.5q70 0 145.5 15t151.5 60l84 -143q-100 -59 -196.5 -80.5t-188.5 -21.5q-164 0 -315.5 49t-266.5 148.5t-183.5 250t-68.5 350.5zM614 528q0 -61 21.5 -119.5t62.5 -102.5t100.5 -70.5 t135.5 -26.5q78 0 137 26.5t99 71.5t59.5 104.5t19.5 125.5q0 61 -19.5 118.5t-58 100.5t-98 68.5t-139.5 25.5q-74 0 -133.5 -25.5t-101.5 -69.5t-63.5 -102.5t-21.5 -124.5z" />
<glyph unicode="A" horiz-adv-x="1572" d="M18 0l644 1434h249l643 -1434h-243l-137 301h-777l-135 -301h-244zM483 510h607l-304 682z" />
<glyph unicode="B" horiz-adv-x="1466" d="M180 0v1434h658q102 0 191 -24t154.5 -74t103.5 -128t38 -184q0 -92 -48 -168t-151 -117q63 -18 110.5 -57t76 -86t43 -96t14.5 -90q0 -117 -43 -196t-116.5 -127t-170 -67.5t-202.5 -19.5h-658zM408 213h430q47 0 100 9t98 31.5t75 60.5t30 98q0 57 -29 99t-73 69.5 t-97 41t-102 13.5h-432v-422zM408 840h432q129 0 193.5 47t64.5 133q0 37 -16.5 75t-49.5 66.5t-82 47t-112 18.5h-430v-387z" />
<glyph unicode="C" horiz-adv-x="1439" d="M92 707q0 141 46 276t139.5 240.5t235.5 170t335 64.5q145 0 279.5 -53t244.5 -164l-153 -147q-78 76 -174.5 111.5t-196.5 35.5q-137 0 -236.5 -46t-165 -121t-96.5 -171t-31 -194t31 -192.5t95.5 -167.5t164 -118t238.5 -45q100 0 202.5 40t178.5 116l157 -158 q-111 -111 -249 -162t-289 -51q-195 0 -337 61.5t-235.5 165t-138.5 235.5t-45 274z" />
<glyph unicode="D" horiz-adv-x="1536" d="M180 0v1434h543q184 0 318.5 -60.5t222.5 -159t132 -225.5t46 -260v-13q0 -129 -39 -253q-41 -131 -129 -234.5t-225.5 -166t-325.5 -62.5h-543zM408 221h315q131 0 225 44t153.5 117t87.5 164q25 82 25 167v18q-2 90 -31.5 177t-90 154.5t-151.5 109.5t-218 42h-315 v-993z" />
<glyph unicode="E" horiz-adv-x="1353" d="M180 0v1434h1053v-224h-823v-387h790v-213h-790v-385h829v-225h-1059z" />
<glyph unicode="F" horiz-adv-x="1282" d="M180 0v1432h1014v-224h-784v-436h745v-213h-745v-559h-230z" />
<glyph unicode="G" horiz-adv-x="1521" d="M92 702q0 156 49 295.5t144.5 244t236 165.5t324.5 61q143 0 281.5 -53t248.5 -164l-143 -147q-78 76 -182.5 114.5t-204.5 38.5q-127 0 -225.5 -44t-166 -119.5t-102.5 -177t-35 -214.5q0 -98 30 -191t94.5 -165t165 -116t239.5 -44q92 0 178 28t172 99v291h-399v205 h612v-588q-109 -119 -245 -184.5t-318 -65.5q-197 0 -339 60.5t-234.5 162t-136.5 233.5t-44 275z" />
<glyph unicode="H" horiz-adv-x="1574" d="M180 0v1434h230v-625h757v625h228v-1434h-228v596h-757v-596h-230z" />
<glyph unicode="I" horiz-adv-x="587" d="M180 0v1434h228v-1434h-228z" />
<glyph unicode="J" horiz-adv-x="1443" d="M57 582h226q0 -190 99 -292t288 -102q94 0 165.5 30t121 84t74 128t24.5 164v627h-461v213h690v-840q0 -137 -43 -252t-123 -197t-193.5 -127t-254.5 -45q-133 0 -246 41t-195 119t-127 190.5t-45 258.5z" />
<glyph unicode="K" horiz-adv-x="1327" d="M180 0v1434h230v-619l583 619h285v-9l-657 -684l714 -727v-14h-286l-639 653v-653h-230z" />
<glyph unicode="L" horiz-adv-x="1202" d="M180 0v1434h230v-1221h755v-213h-985z" />
<glyph unicode="M" horiz-adv-x="1837" d="M180 -2v1434h266l474 -672l471 672h266v-1434h-230v1100l-487 -678h-49l-481 678v-1100h-230z" />
<glyph unicode="N" horiz-adv-x="1579" d="M180 0v1434h176l813 -1020v1020h230v-1434h-174l-813 1012v-1012h-232z" />
<glyph unicode="O" horiz-adv-x="1650" d="M92 709q0 164 54.5 302t152.5 237.5t233 155.5t297 56q184 0 320.5 -63.5t227.5 -167t136.5 -238.5t45.5 -280t-45.5 -279.5t-135.5 -237t-228 -164t-325 -61.5q-186 0 -324.5 62.5t-228.5 166t-135 236.5t-45 275zM319 707q2 -96 31 -189.5t90.5 -169.5t156.5 -122 t228 -46t229.5 44t158 117t90 168t28.5 198q0 98 -28.5 195t-90 174t-156.5 125t-227 50q-125 0 -220 -41t-159.5 -113.5t-97.5 -172.5t-33 -217z" />
<glyph unicode="P" horiz-adv-x="1415" d="M180 0v1434q166 0 332 1t332 1q129 0 225 -43t159.5 -113t96.5 -159t33 -182t-32 -182t-96.5 -159t-160.5 -114t-225 -44h-434v-440h-230zM410 651h434q94 0 157.5 42t94 106.5t30.5 138.5t-31.5 138.5t-94 106.5t-156.5 42h-434v-574z" />
<glyph unicode="Q" horiz-adv-x="1650" d="M90 721q0 141 45 275t136 237.5t229.5 167t324.5 63.5t323.5 -62.5t227.5 -164.5t134 -234.5t46 -271.5v-14q0 -120 -34 -236q-35 -123 -107 -223l172 -170l-160 -162l-176 172q-84 -59 -190.5 -90t-235.5 -31q-190 0 -328.5 62.5t-228.5 167t-134 239t-44 275.5z M317 717q0 -98 33 -192.5t95.5 -169t157.5 -120t222 -45.5q129 0 225.5 48.5t159 125t92.5 174.5q27 93 27 186v13q-2 96 -31.5 189.5t-90 166t-155 117.5t-227.5 45q-129 0 -225 -46t-159.5 -121.5t-94.5 -173.5q-29 -91 -29 -185v-12z" />
<glyph unicode="R" horiz-adv-x="1476" d="M180 0v1436q168 0 334 -1t334 -1q125 0 219 -39t157.5 -104.5t96.5 -150.5t33 -175q0 -78 -21.5 -151t-67.5 -134.5t-120 -104.5t-180 -57l428 -477l24 -41h-268l-436 496h-303v-496h-230zM410 705h436q72 0 123 20t84.5 56t50 82t16.5 98q0 49 -16.5 96t-49 84 t-84.5 60.5t-122 23.5h-438v-520z" />
<glyph unicode="S" horiz-adv-x="1351" d="M63 293l173 115q39 -66 90 -111t109.5 -72.5t122 -40t124.5 -12.5q63 0 129 11.5t117 39t83.5 73.5t32.5 114q0 57 -28.5 98t-78.5 67.5t-116.5 43t-142.5 26.5q-106 14 -206.5 38t-177.5 70t-124 120.5t-47 189.5q0 111 49 189.5t129 128t179.5 72t195.5 22.5 q78 0 153.5 -10.5t145 -38t130 -74.5t105.5 -119l-174 -117q-51 74 -146 116t-208 44q-72 0 -133.5 -14.5t-105.5 -42t-68.5 -68.5t-24.5 -92q0 -53 28 -87t76 -57.5t110.5 -37t133.5 -23.5q111 -16 214.5 -42t184.5 -75t129 -128t48 -199q0 -121 -51.5 -205t-134 -137.5 t-189 -77t-219.5 -23.5q-102 0 -193.5 16.5t-169 55.5t-141 101.5t-113.5 152.5z" />
<glyph unicode="T" horiz-adv-x="1241" d="M35 1227v207h1171v-207h-469v-1227h-231v1227h-471z" />
<glyph unicode="U" horiz-adv-x="1540" d="M162 594v838h227v-838q0 -98 26.5 -173t76 -126t116 -80t146.5 -31q12 -1 24 0q72 0 134 20q72 24 126 77t83.5 132t29.5 181v838h227v-838q0 -158 -49 -276.5t-133 -196.5t-198 -115q-103 -33 -219 -33h-25q-121 2 -227.5 43t-188.5 118t-129 191.5t-47 268.5z" />
<glyph unicode="V" horiz-adv-x="1476" d="M23 1434h258l456 -1166l459 1166h256l-594 -1440h-240z" />
<glyph unicode="W" horiz-adv-x="2199" d="M33 1434h256l364 -1104l371 1104h147l379 -1104l357 1104h256l-512 -1436h-203l-191 506l-157 481l-158 -483l-188 -504h-201z" />
<glyph unicode="X" horiz-adv-x="1337" d="M18 0v6l504 721l-483 696v11h252l379 -555l377 555h251v-11l-485 -696l506 -721v-6h-260l-389 567l-391 -567h-261z" />
<glyph unicode="Y" horiz-adv-x="1404" d="M33 1423v11h272l395 -633l408 633h276v-11l-569 -835v-588h-229v588z" />
<glyph unicode="Z" horiz-adv-x="1247" d="M53 0v129l774 1094h-708v211h1046v-105l-788 -1110h788v-219h-1112z" />
<glyph unicode="[" horiz-adv-x="698" d="M164 -360v1814h463v-190h-248v-1432h248v-192h-463z" />
<glyph unicode="\" horiz-adv-x="1028" d="M51 1565h223l703 -1733h-221z" />
<glyph unicode="]" horiz-adv-x="700" d="M74 -166h248v1432h-248v190h463v-1814h-463v192z" />
<glyph unicode="^" horiz-adv-x="1275" d="M86 707v10l473 719h143l486 -717l-2 -12h-232l-323 495l-324 -495h-221z" />
<glyph unicode="_" horiz-adv-x="1230" d="M133 -18h965v-189h-965v189z" />
<glyph unicode="`" horiz-adv-x="479" d="M4 1430v8h254l152 -277v-10h-191z" />
<glyph unicode="a" d="M82 506q0 127 41 225t111.5 165t166 101.5t203.5 34.5q109 0 203 -48t141 -134l6 160h205v-1010h-201l-10 164q-25 -49 -64.5 -85t-87.5 -59.5t-98.5 -35t-97.5 -11.5q-111 0 -206 35t-163.5 102.5t-108.5 167t-40 228.5zM293 506q0 -78 25.5 -140.5t70.5 -105.5 t104.5 -66.5t127.5 -23.5q109 0 181 49t109 124t37 162t-37 161.5t-109 124t-181 49.5q-68 0 -127.5 -23.5t-104.5 -66.5t-70.5 -104.5t-25.5 -139.5z" />
<glyph unicode="b" d="M143 0v1432h211v-580q25 45 66 79t90 56.5t100.5 33.5t98.5 11q109 0 203 -33.5t162.5 -100.5t107.5 -165t39 -227q0 -125 -40 -223.5t-108.5 -166t-163 -102t-204.5 -34.5q-102 0 -196.5 41.5t-154.5 138.5l-12 -160h-199zM367 506q0 -74 25.5 -135.5t69.5 -104.5 t102.5 -66.5t125.5 -23.5q66 0 124 22.5t101 65.5t69 104.5t26 137.5q0 78 -26 138.5t-69 102t-101 64.5t-124 23t-125 -24t-103 -67t-69.5 -103t-25.5 -134z" />
<glyph unicode="c" horiz-adv-x="1042" d="M82 504q0 131 42 230.5t114.5 166t169 100t206.5 33.5q104 0 193.5 -34.5t171.5 -114.5l-135 -142q-47 47 -107.5 69t-120.5 22q-68 0 -127 -24t-103 -67t-68.5 -103t-24.5 -136q0 -80 25.5 -140.5t69.5 -102.5t102.5 -62.5t123.5 -20.5q66 0 128.5 21.5t111.5 72.5 l143 -141q-86 -84 -179 -121t-204 -37q-109 0 -206 34t-169.5 100.5t-114.5 166t-42 230.5z" />
<glyph unicode="d" d="M82 506q0 129 39 227t107.5 165t161.5 100.5t204 33.5q45 0 97 -11t101.5 -33.5t90.5 -56.5t65 -79v580h211v-1432h-198l-13 160q-59 -96 -154.5 -138t-195.5 -42q-111 0 -205 34.5t-162.5 102t-108.5 166t-40 223.5zM293 506q0 -76 24.5 -137.5t67.5 -104.5t101.5 -65.5 t125.5 -22.5q66 0 124.5 23.5t102.5 66.5t69.5 104.5t25.5 135.5t-25.5 134t-69.5 103t-102.5 67t-124.5 24q-68 0 -126 -23t-101 -64.5t-67.5 -102t-24.5 -138.5z" />
<glyph unicode="e" horiz-adv-x="1191" d="M82 510q0 115 39 212t108.5 166.5t167 108.5t215.5 39q123 0 222.5 -37.5t167.5 -113.5q68 -77 100 -191q22 -79 22 -177q0 -44 -4 -91h-819q14 -117 102.5 -185.5t227.5 -68.5q78 0 162 27.5t131 81.5l137 -134q-39 -43 -90 -75.5t-107.5 -54t-118 -32t-118.5 -10.5 q-125 0 -225.5 38t-171 107.5t-109.5 169t-39 220.5zM305 604h613q-10 121 -90 182.5t-210 61.5q-117 0 -202.5 -61.5t-110.5 -182.5z" />
<glyph unicode="f" horiz-adv-x="798" d="M57 811v186h193v74q0 94 27.5 166t76.5 120t116 72.5t144 24.5q66 0 128.5 -20.5t119.5 -59.5l-82 -157q-41 27 -76.5 40t-76.5 13q-72 0 -118 -48t-46 -151v-74h305v-186h-305v-811h-213v811h-193z" />
<glyph unicode="g" horiz-adv-x="1257" d="M82 532q0 127 47 222.5t124 159t175 95t201 31.5q31 0 67.5 -4t73.5 -12t70.5 -21.5t60.5 -31.5l111 135l153 -119l-121 -141q63 -74 93 -146.5t30 -167.5q0 -135 -66.5 -237t-201.5 -156q78 -27 129 -64.5t82 -81.5t43 -91t12 -92q0 -102 -46 -180.5t-122.5 -129.5 t-174 -76.5t-197.5 -25.5q-123 0 -223.5 30.5t-170 88t-106.5 141.5q-33 76 -33 168v20h211v-8q0 -54 25 -96q26 -45 71 -76t103.5 -47t122.5 -16q57 0 115.5 12t103.5 37.5t73.5 64.5t28.5 93q0 106 -88 162.5t-229 56.5q-123 0 -223.5 34.5t-173 99t-111.5 158t-39 211.5z M295 532q0 -76 26.5 -133t71.5 -96t106.5 -59.5t129.5 -20.5q70 0 130 22.5t104 63.5t68.5 98.5t24.5 124.5q0 74 -26.5 132.5t-71.5 98.5t-104 60.5t-125 20.5t-125.5 -19.5t-106.5 -57.5t-74.5 -96.5t-27.5 -138.5z" />
<glyph unicode="h" horiz-adv-x="1226" d="M143 0v1434h211v-574q66 92 151 128t177 36q106 0 185 -34t130.5 -97.5t76 -151.5t24.5 -196v-545h-211v543q0 143 -68.5 213.5t-185.5 70.5q-61 0 -112.5 -23.5t-88.5 -64.5t-57.5 -96t-20.5 -117v-526h-211z" />
<glyph unicode="i" horiz-adv-x="497" d="M119 1307q0 66 41 97.5t90 31.5t90 -32t41 -97q0 -66 -41 -98.5t-90 -32.5t-90 32.5t-41 98.5zM143 0v1014h211v-1014h-211z" />
<glyph unicode="j" horiz-adv-x="497" d="M-178 -442l76 166q63 -31 118 -31q82 0 104.5 48t22.5 140v1133h211v-1133q0 -193 -73.5 -290t-245.5 -97q-53 0 -106.5 14.5t-106.5 49.5zM119 1311q0 66 41 97.5t90 31.5t90 -32t41 -97q0 -66 -41 -98.5t-90 -32.5t-90 32.5t-41 98.5z" />
<glyph unicode="k" horiz-adv-x="1052" d="M143 0v1432h213v-836l375 414h256v-13l-436 -462l496 -521v-14h-259l-432 467v-467h-213z" />
<glyph unicode="l" horiz-adv-x="514" d="M152 0v1432h210v-1432h-210z" />
<glyph unicode="m" horiz-adv-x="1857" d="M143 0v1012h197l14 -135q43 84 123 117.5t160 33.5q49 0 96 -10t89 -35t76 -63.5t56 -94.5q61 113 151.5 157t194.5 44q211 0 320 -124t109 -343v-559h-213v559q0 55 -14.5 104.5t-42 86t-69.5 57t-98 20.5q-55 0 -101 -21.5t-78 -58t-49 -87t-17 -105.5v-555h-213v555 q0 55 -15.5 105.5t-46.5 88t-75 59t-99 21.5t-100 -21.5t-77 -59t-49.5 -88t-17.5 -105.5v-555h-211z" />
<glyph unicode="n" horiz-adv-x="1249" d="M143 0v1012h193l12 -148q143 162 340 162q92 0 171 -31.5t137.5 -93t92 -152t33.5 -206.5v-543h-213v541q0 131 -70.5 210.5t-201.5 79.5q-63 0 -115.5 -23.5t-89.5 -65.5t-57.5 -97t-20.5 -117v-528h-211z" />
<glyph unicode="o" horiz-adv-x="1204" d="M80 504q0 111 37 207t105.5 166.5t164.5 111.5t213 41t213 -41t166 -111.5t107.5 -167t37.5 -206.5q0 -113 -36.5 -208t-105.5 -166t-166 -110.5t-216 -39.5t-215 39.5t-163.5 110.5t-104.5 166t-37 208zM291 504q0 -68 21.5 -127.5t61.5 -104.5t97 -70.5t129 -25.5 q74 0 131 25.5t97 70.5t61.5 104.5t21.5 127.5t-22.5 127t-63.5 105t-98 73t-127 27q-72 0 -129 -27t-97 -73t-61.5 -105.5t-21.5 -126.5z" />
<glyph unicode="p" d="M143 -469v1479h199l12 -164q59 92 156.5 138t200.5 46q113 0 207 -40t161.5 -109.5t104.5 -166t37 -210.5q0 -115 -36 -211t-101.5 -167t-161 -110t-211.5 -39q-47 0 -97.5 9.5t-98.5 29t-90 52t-71 79.5v-616h-211zM373 504q0 -68 23.5 -126.5t65.5 -102.5t100 -68.5 t128 -24.5t128.5 23.5t101.5 66.5t66.5 101.5t23.5 130.5q0 143 -87 232t-233 89q-74 0 -132 -24.5t-99 -68.5t-63.5 -102.5t-22.5 -125.5z" />
<glyph unicode="q" horiz-adv-x="1304" d="M82 504q0 115 37 211t104.5 165.5t161.5 109.5t209 40q102 0 198.5 -46t155.5 -138l13 164h200v-1479h-211v616q-29 -47 -70.5 -79.5t-90 -52t-99.5 -29t-96 -9.5q-119 0 -213 39t-160.5 110t-102.5 167t-36 211zM295 504q0 -72 23.5 -130.5t65.5 -101.5t100 -66.5 t128 -23.5t128.5 24.5t100.5 68.5t65.5 102.5t23.5 126.5t-22.5 126t-63.5 102t-99.5 68.5t-132.5 24.5q-145 0 -231 -89t-86 -232z" />
<glyph unicode="r" horiz-adv-x="901" d="M143 0v1010h197l14 -133q55 96 135 125.5t162 29.5q74 0 140.5 -23.5t109.5 -62.5l-96 -184q-39 31 -79 46t-99 15q-55 0 -104.5 -17.5t-86.5 -51t-59.5 -86t-22.5 -121.5v-547h-211z" />
<glyph unicode="s" horiz-adv-x="1021" d="M63 156l111 149q72 -78 168 -112.5t186 -36.5q37 0 75 7t68.5 22.5t51 41t20.5 60.5q2 68 -59 98.5t-174 40.5q-72 6 -144.5 23.5t-132 51.5t-97.5 89t-38 139t39 142.5t100.5 95.5t135 53t145.5 16q117 0 210 -29.5t179 -105.5l-119 -139q-59 55 -124.5 74.5 t-141.5 19.5h-12q-90 0 -144 -30q-58 -32 -59 -91q2 -63 61.5 -91t157.5 -38q70 -6 146 -19.5t139 -47t103 -93t40 -157.5q0 -72 -30.5 -130.5t-87 -100.5t-135 -65.5t-177.5 -23.5q-123 0 -241.5 37t-219.5 150z" />
<glyph unicode="t" horiz-adv-x="833" d="M61 825v183h195v270l213 22v-292h295v-183h-297v-481q0 -80 36 -123t109 -43q31 0 65 9.5t64 25.5l62 -180q-53 -23 -101.5 -34t-101.5 -11h-14q-156 0 -241 86q-89 90 -89 270v481h-195z" />
<glyph unicode="u" horiz-adv-x="1247" d="M127 467v543h211v-541q0 -129 70.5 -210t203.5 -81q61 0 113.5 23.5t89.5 65.5t57.5 97.5t20.5 118.5v527h211v-1012h-191l-12 149q-74 -86 -158 -124.5t-190 -38.5q-92 0 -171 32.5t-135.5 94t-88 151.5t-31.5 205z" />
<glyph unicode="v" horiz-adv-x="1163" d="M37 1012h233l136 -326l178 -469l159 428l152 367h231l-428 -1016h-231z" />
<glyph unicode="w" horiz-adv-x="1736" d="M49 1012h238l250 -795l241 795h183l241 -795l250 795h236l-355 -1016h-246l-118 336l-99 352l-100 -352l-119 -336h-245z" />
<glyph unicode="x" horiz-adv-x="1052" d="M25 0v6l362 508l-340 490v6h254l225 -361l224 361h256v-6l-340 -490l362 -508v-6h-254l-248 367l-247 -367h-254z" />
<glyph unicode="y" horiz-adv-x="1142" d="M45 1010h246l174 -478l100 -286l109 282l200 482h236l-637 -1479h-233l209 483z" />
<glyph unicode="z" horiz-adv-x="976" d="M61 0v86l523 731h-488v193h797v-99l-508 -704h512v-207h-836z" />
<glyph unicode="{" horiz-adv-x="704" d="M68 508v160q49 0 77.5 17t44 45t20.5 61.5t5 66.5v283q0 190 98.5 276t313.5 47v-161q-109 25 -151 -14.5t-42 -155.5v-275q0 -45 -1 -87t-14 -78t-43 -62.5t-85 -42.5q55 -16 85 -43t43 -63t14 -78t1 -85v-282q0 -57 8.5 -93t30 -54.5t58 -22.5t96.5 4v-166 q-225 -39 -318.5 51t-93.5 291v272q0 33 -5 66t-20.5 60.5t-44 45t-77.5 17.5z" />
<glyph unicode="|" horiz-adv-x="540" d="M166 -190v1706h209v-1706h-209z" />
<glyph unicode="}" horiz-adv-x="704" d="M78 -137q59 -8 96 -4t58.5 22.5t29.5 55t8 94.5v280q0 43 1 85t14.5 78t43 62.5t85.5 43.5q-55 16 -85 42.5t-43.5 62.5t-14.5 78t-1 87v274q0 117 -42 156t-150 14v164q215 39 313 -48t98 -275v-285q0 -33 4.5 -66.5t19.5 -61.5t45 -45.5t79 -17.5v-159q-49 0 -79 -17.5 t-45 -45t-19.5 -60.5t-4.5 -66v-272q0 -201 -93 -291t-318 -51v166z" />
<glyph unicode="~" horiz-adv-x="1267" d="M129 547q47 143 143.5 199.5t204.5 35.5q51 -4 93 -21.5t80 -41t74 -46t75 -34.5q125 -49 186 113l158 -54q-23 -70 -59.5 -125t-87 -88.5t-114 -40t-137.5 22.5q-35 12 -71.5 34.5t-73.5 45t-71.5 39t-67.5 20.5q-55 14 -105.5 -15.5t-81.5 -101.5z" />
<glyph unicode="&#xa1;" horiz-adv-x="528" d="M121 885q0 70 44 105.5t98 35.5t98.5 -35.5t44.5 -105.5q0 -72 -44.5 -107t-98.5 -35t-98 35t-44 107zM152 -459v1077h227v-1077h-227z" />
<glyph unicode="&#xa2;" horiz-adv-x="1101" d="M104 481q0 211 115 344t309 172v144h199v-142q147 -25 260 -122l-117 -148q-47 41 -111.5 63.5t-121.5 22.5q-66 0 -125 -21.5t-103 -63.5t-70 -104.5t-26 -144.5q0 -78 26 -139t70 -104t103 -67t125 -24q61 0 132 33t118 80l133 -154q-61 -59 -136 -96t-157 -49v-145 h-199v147q-92 18 -169.5 59t-134 106t-88.5 153t-32 200z" />
<glyph unicode="&#xa3;" horiz-adv-x="1343" d="M119 0v215q115 59 154.5 150.5t31.5 199.5h-186v193h149q-14 53 -27.5 114.5t-13.5 120.5q0 111 37 197t104.5 144.5t162 89t210.5 30.5q102 0 189.5 -22.5t152 -72.5t102.5 -130t42 -193h-205q-8 117 -85 169t-196 52q-147 0 -215.5 -74.5t-68.5 -185.5q0 -61 12 -120.5 t25 -118.5h450v-193h-409q6 -43 0.5 -92t-23.5 -98t-50 -93t-81 -75h854v-207h-1116z" />
<glyph unicode="&#xa4;" horiz-adv-x="1255" d="M135 315l121 119q-59 104 -56 218t62 214l-127 121l160 160l119 -121q94 49 215 49q115 0 211 -51l123 123l157 -160l-119 -119q57 -102 58.5 -219t-58.5 -215l119 -119l-155 -155l-123 119q-47 -25 -101.5 -36.5t-113.5 -11.5q-117 0 -211 48l-121 -121zM387 651 q0 -47 16.5 -90t47 -77.5t75 -55t101.5 -20.5q59 0 104 20.5t75 55t45 77.5t15 90t-15 91t-45 79t-75 55.5t-104 20.5q-57 0 -101.5 -20.5t-75 -55.5t-47 -79t-16.5 -91z" />
<glyph unicode="&#xa5;" horiz-adv-x="1472" d="M61 1423v11h267l401 -633l420 633h264v-11l-483 -710h231v-170h-317v-111h317v-168h-317v-264h-230v264h-317v168h317v111h-317v170h233z" />
<glyph unicode="&#xa6;" horiz-adv-x="555" d="M168 -184v751h219v-751h-219zM168 698v754h219v-754h-219z" />
<glyph unicode="&#xa7;" horiz-adv-x="1224" d="M111 160l139 143q72 -84 164 -117.5t196 -31.5q49 0 97.5 8t87.5 25.5t63.5 42t26.5 57.5q2 29 -19.5 49t-58.5 34.5t-87 21.5t-108 9q-88 2 -176 18.5t-157.5 52.5t-112.5 93.5t-39 141.5q0 29 12.5 60.5t36 61t57 54t78.5 39.5q-94 23 -135 87t-39 134q4 92 54.5 152.5 t124 97.5t160.5 51t165 14q55 0 115.5 -7t119 -25.5t110.5 -48t91 -72.5l-139 -121q-68 53 -139.5 70.5t-163.5 19.5q-53 0 -101.5 -7t-87 -23.5t-62.5 -40t-24 -54.5q0 -35 25 -57.5t63.5 -37t86 -21.5t88.5 -9q82 -2 171 -16.5t161.5 -49t117.5 -96t37 -155.5 q-4 -72 -55 -124.5t-129 -72.5q92 -29 140 -94.5t44 -132.5q-4 -92 -58.5 -154.5t-131 -99.5t-162.5 -52.5t-156 -15.5q-145 0 -278.5 48t-212.5 151zM346 713q-2 -45 38 -75t100.5 -44t131 -14t131 14t102.5 44t42 75q2 45 -37 76.5t-99.5 49t-132 18.5t-133 -14.5 t-102.5 -48t-41 -81.5z" />
<glyph unicode="&#xa8;" horiz-adv-x="931" d="M109 1354q0 63 39.5 94t87 31t87 -31t39.5 -94t-39.5 -95t-87 -32t-87 32t-39.5 95zM600 1354q0 63 40 94t88 31t88 -31t40 -94t-40 -95t-88 -32t-88 32t-40 95z" />
<glyph unicode="&#xa9;" horiz-adv-x="1689" d="M100 721q0 154 50.5 289t146.5 237.5t235.5 161.5t317.5 59t316.5 -59t231.5 -161.5t142 -238t49 -288.5q0 -152 -49 -288t-142 -238.5t-231.5 -162t-316.5 -59.5t-317.5 59.5t-235.5 162t-146.5 238.5t-50.5 288zM289 721q0 -121 39 -226.5t110.5 -183.5t176 -123 t235.5 -45t234.5 45t173 123t106.5 183.5t37 226.5t-37 226.5t-106.5 184t-173 123.5t-234.5 45t-235.5 -45t-176 -123.5t-110.5 -184t-39 -226.5zM469 721q0 92 31.5 166t88 126t131.5 79.5t161 27.5t158.5 -32.5t131.5 -92.5l-116 -108q-37 35 -79 53t-95 18 q-49 0 -94.5 -16t-78 -47t-52 -75t-19.5 -99q0 -53 19.5 -96t53 -73t77.5 -46.5t94 -16.5q53 0 95 19.5t81 56.5l117 -112q-61 -59 -133 -93t-160 -34q-86 0 -161 26.5t-131.5 77.5t-88 125t-31.5 166z" />
<glyph unicode="&#xaa;" horiz-adv-x="1009" d="M125 1104q0 86 26.5 150.5t72.5 107.5t109.5 64.5t135.5 21.5q68 0 129 -30t94 -83l2 99h164v-662h-162l-4 105q-35 -59 -100.5 -91t-126.5 -32q-72 0 -134.5 22.5t-108.5 67.5t-71.5 109.5t-25.5 150.5zM166 465v174h688v-174h-688zM297 1104q0 -88 54.5 -139.5 t131.5 -51.5q61 0 103.5 29t63 71t20.5 91t-20.5 91t-63 70.5t-103.5 28.5q-78 0 -132 -50t-54 -140z" />
<glyph unicode="&#xab;" horiz-adv-x="1021" d="M78 608l284 451h228v-2l-283 -449q141 -231 283 -454h-228zM426 608l285 451h225v-2l-281 -449l281 -454h-225z" />
<glyph unicode="&#xac;" horiz-adv-x="1081" d="M143 586v186h785v-450h-183v264h-602z" />
<glyph unicode="&#xad;" horiz-adv-x="1011" d="M133 498v190h746v-190h-746z" />
<glyph unicode="&#xae;" horiz-adv-x="1685" d="M102 717q0 152 49.5 288t143.5 238.5t231.5 161.5t315.5 59t316 -59t232.5 -161.5t143.5 -239t49 -287.5q0 -152 -49 -288t-143.5 -238.5t-232.5 -162t-316 -59.5t-315.5 59.5t-231.5 162t-143.5 238.5t-49.5 288zM291 717q0 -121 37 -226.5t107.5 -183.5t173 -123 t233.5 -45t234.5 45t173 123t106.5 183.5t37 226.5t-37 226.5t-106.5 184t-173 123.5t-234.5 45t-233.5 -45t-173 -123.5t-107.5 -184t-37 -226.5zM553 340v760h356q82 0 141.5 -32t93.5 -81t43 -107.5t-8.5 -111.5t-61.5 -94t-113 -56l200 -241v-37h-186l-197 250h-96v-250 h-172zM725 737h182q53 0 81 33t28 71t-26.5 70.5t-80.5 32.5h-184v-207z" />
<glyph unicode="&#xaf;" horiz-adv-x="872" d="M72 1257v181h710v-181h-710z" />
<glyph unicode="&#xb0;" horiz-adv-x="706" d="M97 1234.5q1 63.5 30 118t86 91.5t141 37t140.5 -37t85 -91.5t28.5 -118t-27.5 -117.5t-85 -91t-141.5 -37q-86 0 -143 37t-86 91t-28 117.5zM231 1234q0 -44 30 -80t91 -36q59 0 89 36t30 80t-30 80t-89 36t-90 -36t-31 -80z" />
<glyph unicode="&#xb1;" horiz-adv-x="1093" d="M137 668v198h307v312h203v-312h309v-198h-309v-312h-203v312h-307zM141 53v195h811v-195h-811z" />
<glyph unicode="&#xb2;" horiz-adv-x="749" d="M78 827v189q0 76 31.5 118t81 64.5t104.5 32.5t104.5 22.5t81 33t31.5 65.5q0 53 -39 74.5t-102 21.5q-51 0 -90 -19.5t-41 -70.5h-158q0 61 25.5 104t66.5 71t92 41t103 13q63 0 118.5 -12t96.5 -41t64.5 -74t23.5 -108q0 -84 -32 -128t-80 -66.5t-104.5 -30 t-104.5 -17.5t-79.5 -29.5t-31.5 -64.5v-33h424v-156h-586z" />
<glyph unicode="&#xb3;" horiz-adv-x="761" d="M68 1044h165q10 -53 53.5 -69.5t88.5 -16.5q25 0 49.5 4.5t46 15.5t34.5 28.5t13 44.5q0 35 -29.5 66.5t-111.5 31.5h-115v125h107q59 0 98 16.5t41 73.5q0 12 -6 26.5t-22.5 29t-43 23.5t-65.5 9q-49 0 -93.5 -16.5t-54.5 -71.5h-141q0 59 25.5 102t67.5 70t93 39 t105 12q53 0 105 -13t94 -41t69 -71t27 -100q0 -49 -27 -92t-76 -60q59 -16 90 -62t31 -93q0 -70 -28.5 -116t-74.5 -73.5t-102.5 -40t-111.5 -12.5q-53 0 -106.5 12.5t-96.5 40t-70.5 71.5t-27.5 107z" />
<glyph unicode="&#xb4;" horiz-adv-x="458" d="M14 1151v10l152 271h254v-9l-215 -272h-191z" />
<glyph unicode="&#xb6;" horiz-adv-x="1708" d="M68 899q0 100 34.5 195.5t103 171t171 122t237.5 46.5h1018v-213h-196v-1659h-228v1659h-422v-1659h-227v805q-123 8 -215 57t-153.5 123t-92 166t-30.5 186z" />
<glyph unicode="&#xb7;" horiz-adv-x="536" d="M131 569q0 68 43 102t94 34t94.5 -34t43.5 -102t-43.5 -101.5t-94.5 -33.5t-94 33.5t-43 101.5z" />
<glyph unicode="&#xb8;" horiz-adv-x="606" d="M61 -338l97 82q23 -35 60.5 -51.5t78.5 -18.5q41 0 72.5 14.5t42.5 49.5q8 29 -5.5 52.5t-40 36.5t-62.5 12t-73 -19l-47 39l60 188h155l-30 -106q68 -2 111.5 -23.5t67 -54.5t29 -73t-3.5 -79q-20 -94 -98 -139t-166 -43q-74 2 -141.5 35t-106.5 98z" />
<glyph unicode="&#xb9;" horiz-adv-x="544" d="M74 827v140h129v428l-111 -27v137l270 68v-606h132v-140h-420z" />
<glyph unicode="&#xba;" horiz-adv-x="972" d="M129 1104q0 84 27.5 148.5t75 107.5t113 65.5t140.5 22.5q76 0 141.5 -22.5t113.5 -65.5t76 -107.5t28 -148.5q0 -86 -28 -150.5t-76 -109.5t-113.5 -67.5t-141.5 -22.5t-140 22.5t-112.5 67.5t-76 109.5t-27.5 150.5zM164 483v158h649v-158h-649zM301 1104 q0 -88 53 -139.5t131 -51.5t132.5 51.5t54.5 139.5q0 90 -54.5 140t-132.5 50t-131 -50t-53 -140z" />
<glyph unicode="&#xbb;" horiz-adv-x="1019" d="M86 158l283 454l-283 449v2h227l285 -451l-285 -454h-227zM430 158l281 454l-281 449v2h225l285 -451l-285 -454h-225z" />
<glyph unicode="&#xbc;" horiz-adv-x="1585" d="M96 690v139h127v428l-108 -24v137l268 68v-609h133v-139h-420zM281 -2l784 1448h190l-786 -1448h-188zM852 274l350 471h209v-464h100v-142h-100v-139h-158v139h-393zM1022 281h231v311z" />
<glyph unicode="&#xbd;" horiz-adv-x="1646" d="M92 692v139h127v429l-108 -27v137l268 68v-607h133v-139h-420zM276 -4l783 1450h190l-784 -1450h-189zM975 -6v188q0 76 31.5 118t81 64.5t104.5 33t104.5 22.5t81 32.5t31.5 65.5q0 53 -39 74.5t-100 21.5q-51 0 -91 -19.5t-40 -70.5h-160q0 61 25.5 104.5t66.5 71 t92 41t103 13.5q63 0 118.5 -12.5t96.5 -41t64.5 -73.5t23.5 -109q0 -82 -32 -125t-79 -65.5t-103.5 -29.5t-103.5 -17.5t-78.5 -31t-31.5 -67.5v-39h415v-149h-581z" />
<glyph unicode="&#xbe;" horiz-adv-x="1638" d="M78 934h160q10 -51 51 -67.5t84 -16.5q25 0 49 4t44.5 15.5t34 28.5t13.5 42q0 35 -29.5 65.5t-107.5 30.5h-113v121h105q57 0 95 15.5t40 68.5q0 12 -6 26.5t-21.5 29t-42 23.5t-65.5 9q-47 0 -90 -16.5t-52 -69.5h-137q0 57 25.5 98t65.5 68t90.5 39t99.5 12 q51 0 103 -13t93 -40t66.5 -69t25.5 -97q0 -47 -26.5 -89t-75.5 -56q57 -16 87 -61.5t30 -90.5q0 -68 -28 -112t-73 -71.5t-99 -38.5t-105 -11t-103.5 12t-93.5 37.5t-67.5 68.5t-26.5 105zM373 -8l784 1454h191l-787 -1454h-188zM924 274l350 471h209v-464h86v-142h-86 v-139h-158v139h-393zM1094 281h231v311z" />
<glyph unicode="&#xbf;" horiz-adv-x="1230" d="M70 27q0 113 46 180t110.5 110t132 69t110.5 54q43 29 63.5 70t24.5 113v47q57 0 113.5 -1t113.5 -1q0 -106 -18 -177t-51 -118t-78 -76t-100 -51q-41 -20 -83 -38t-75 -41.5t-53.5 -58t-20.5 -85.5q0 -70 28.5 -113t75 -67.5t102.5 -34t110 -9.5q55 0 110 13.5t99 42 t73 71.5t31 105q59 0 116.5 -1t116.5 -1q0 -115 -46 -197t-122.5 -134t-175 -76.5t-205.5 -24.5q-106 0 -205.5 22.5t-176 73.5t-122.5 133t-44 201zM528 909q0 70 45 106t98.5 36t97.5 -36t44 -108q0 -70 -44 -104.5t-98.5 -34.5t-98.5 35t-44 106z" />
<glyph unicode="&#xc0;" horiz-adv-x="1572" d="M18 0l644 1434h249l643 -1434h-243l-137 301h-777l-135 -301h-244zM475 1864v8h254l152 -277v-10h-191zM483 510h607l-304 682z" />
<glyph unicode="&#xc1;" horiz-adv-x="1572" d="M18 0l644 1434h249l643 -1434h-243l-137 301h-777l-135 -301h-244zM483 510h607l-304 682zM676 1591v11l151 270h254v-8l-215 -273h-190z" />
<glyph unicode="&#xc2;" horiz-adv-x="1572" d="M18 0l644 1434h249l643 -1434h-243l-137 301h-777l-135 -301h-244zM430 1579v12l301 279h123l301 -279v-12h-219l-143 123l-144 -123h-219zM483 510h607l-304 682z" />
<glyph unicode="&#xc3;" horiz-adv-x="1572" d="M18 0l644 1434h249l643 -1434h-243l-137 301h-777l-135 -301h-244zM465 1642q29 86 89 136.5t153 29.5q37 -10 70.5 -28.5t68.5 -30.5t72.5 -6t54.5 59l135 -51q-10 -61 -35.5 -99t-60.5 -57.5t-74 -22.5t-74 5q-37 10 -70.5 28.5t-68.5 30.5t-73 2t-62 -63zM483 510h607 l-304 682z" />
<glyph unicode="&#xc4;" horiz-adv-x="1572" d="M18 0l644 1434h249l643 -1434h-243l-137 301h-777l-135 -301h-244zM412 1704q0 63 40 94t87 31t87 -31t40 -94t-40 -95t-87 -32t-87 32t-40 95zM483 510h607l-304 682zM903 1704q0 63 40 94t88 31t88 -31t40 -94t-40 -95t-88 -32t-88 32t-40 95z" />
<glyph unicode="&#xc5;" horiz-adv-x="1572" d="M18 0l644 1434h249l643 -1434h-243l-137 301h-777l-135 -301h-244zM483 510h607l-304 682zM528 1628q0 57 22.5 102.5t58.5 74t82 44t95 15.5q47 0 93.5 -15.5t83 -44t59 -73.5t22.5 -103q0 -76 -35.5 -127t-93.5 -78h-260q-57 27 -92 78t-35 127zM666 1630 q0 -41 29.5 -74.5t88.5 -33.5q61 0 91 33.5t30 74.5t-31 75t-90 34t-88.5 -34t-29.5 -75z" />
<glyph unicode="&#xc6;" horiz-adv-x="1869" d="M-45 0l901 1434h893v-201h-643v-410h614v-200h-614v-416h653v-207h-862v344h-473l-211 -344h-258zM553 549h344v285l14 327h-2z" />
<glyph unicode="&#xc7;" horiz-adv-x="1441" d="M92 707q0 141 46 276t139.5 240.5t235.5 170t335 64.5q145 0 279.5 -53t244.5 -164l-153 -147q-78 76 -174.5 111.5t-196.5 35.5q-137 0 -236.5 -46t-165 -121t-96.5 -171t-31 -194t31 -192.5t95.5 -167.5t164 -118t238.5 -45q100 0 202.5 40t178.5 116l157 -158 q-111 -111 -249 -162t-289 -51q-195 0 -337 61.5t-235.5 165t-138.5 235.5t-45 274zM547 -403l96 81q20 -33 59 -49t79 -18t73 13.5t43 47.5q8 27 -5 50.5t-39 37t-62.5 14.5t-73.5 -18l-47 37l61 195h156l-33 -113q68 -2 112 -23.5t67.5 -54.5t29.5 -72.5t-2 -78.5 q-16 -72 -69.5 -115t-119.5 -57q-43 -10 -90 -8t-91 17t-82 44t-62 70z" />
<glyph unicode="&#xc8;" horiz-adv-x="1353" d="M180 0v1434h1053v-224h-823v-387h790v-213h-790v-385h829v-225h-1059zM467 1858v8h254l151 -277v-10h-190z" />
<glyph unicode="&#xc9;" horiz-adv-x="1353" d="M180 0v1434h1053v-224h-823v-387h790v-213h-790v-385h829v-225h-1059zM604 1581v10l152 271h254v-9l-215 -272h-191z" />
<glyph unicode="&#xca;" horiz-adv-x="1353" d="M180 0v1434h1053v-224h-823v-387h790v-213h-790v-385h829v-225h-1059zM367 1597v13l301 278h123l301 -278v-13h-220l-143 123l-143 -123h-219z" />
<glyph unicode="&#xcb;" horiz-adv-x="1353" d="M180 0v1434h1053v-224h-823v-387h790v-213h-790v-385h829v-225h-1059zM356 1708q0 63 40 94t87 31t87 -30.5t40 -94.5q0 -63 -40 -95t-87 -32t-87 32t-40 95zM848 1708q0 63 40 94t88 31t88 -30.5t40 -94.5q0 -63 -40 -95t-88 -32t-88 32t-40 95z" />
<glyph unicode="&#xcc;" horiz-adv-x="587" d="M-4 1853v9h254l151 -277v-10h-190zM180 0v1434h228v-1434h-228z" />
<glyph unicode="&#xcd;" horiz-adv-x="587" d="M180 0v1434h228v-1434h-228zM184 1567v10l152 270h254v-8l-215 -272h-191z" />
<glyph unicode="&#xce;" horiz-adv-x="587" d="M-33 1575v12l271 277h110l270 -277v-12h-196l-129 121l-127 -121h-199zM180 0v1434h228v-1434h-228z" />
<glyph unicode="&#xcf;" horiz-adv-x="587" d="M-37 1702q0 63 40 94t87 31t87 -31t40 -94t-40 -95t-87 -32t-87 32t-40 95zM180 0v1434h228v-1434h-228zM383 1702q0 63 40 94t88 31t88 -31t40 -94t-40 -95t-88 -32t-88 32t-40 95z" />
<glyph unicode="&#xd0;" horiz-adv-x="1552" d="M37 616v193h676v-193h-676zM199 0v1434h542q184 0 318.5 -60.5t222.5 -159t132 -225.5t46 -260q2 -135 -39 -266t-129 -234.5t-225 -166t-326 -62.5h-542zM426 221h315q131 0 225.5 44t154 117t87 164t25.5 185q-2 90 -32 177t-90 154.5t-151.5 109.5t-218.5 42h-315 v-993z" />
<glyph unicode="&#xd1;" horiz-adv-x="1579" d="M180 0v1434h176l813 -1020v1020h230v-1434h-174l-813 1012v-1012h-232zM469 1651q29 86 89 136t153 30q37 -10 70.5 -29t68.5 -31t73 -6t54 59l135 -51q-10 -61 -35.5 -99t-60.5 -57.5t-74 -22.5t-74 5q-37 10 -70.5 28.5t-68.5 31.5q-35 12 -73 1.5t-62 -63.5z" />
<glyph unicode="&#xd2;" horiz-adv-x="1650" d="M92 709q0 164 54.5 302t152.5 237.5t233 155.5t297 56q184 0 320.5 -63.5t227.5 -167t136.5 -238.5t45.5 -280t-45.5 -279.5t-135.5 -237t-228 -164t-325 -61.5q-186 0 -324.5 62.5t-228.5 166t-135 236.5t-45 275zM319 707q2 -96 31 -189.5t90.5 -169.5t156.5 -122 t228 -46t229.5 44t158 117t90 168t28.5 198q0 98 -28.5 195t-90 174t-156.5 125t-227 50q-125 0 -220 -41t-159.5 -113.5t-97.5 -172.5t-33 -217zM551 1874v8h254l151 -276v-11h-190z" />
<glyph unicode="&#xd3;" horiz-adv-x="1650" d="M92 709q0 164 54.5 302t152.5 237.5t233 155.5t297 56q184 0 320.5 -63.5t227.5 -167t136.5 -238.5t45.5 -280t-45.5 -279.5t-135.5 -237t-228 -164t-325 -61.5q-186 0 -324.5 62.5t-228.5 166t-135 236.5t-45 275zM319 707q2 -96 31 -189.5t90.5 -169.5t156.5 -122 t228 -46t229.5 44t158 117t90 168t28.5 198q0 98 -28.5 195t-90 174t-156.5 125t-227 50q-125 0 -220 -41t-159.5 -113.5t-97.5 -172.5t-33 -217zM711 1595v11l151 270h254v-8l-215 -273h-190z" />
<glyph unicode="&#xd4;" horiz-adv-x="1650" d="M92 709q0 164 54.5 302t152.5 237.5t233 155.5t297 56q184 0 320.5 -63.5t227.5 -167t136.5 -238.5t45.5 -280t-45.5 -279.5t-135.5 -237t-228 -164t-325 -61.5q-186 0 -324.5 62.5t-228.5 166t-135 236.5t-45 275zM319 707q2 -96 31 -189.5t90.5 -169.5t156.5 -122 t228 -46t229.5 44t158 117t90 168t28.5 198q0 98 -28.5 195t-90 174t-156.5 125t-227 50q-125 0 -220 -41t-159.5 -113.5t-97.5 -172.5t-33 -217zM467 1597v13l301 278h123l301 -278v-13h-219l-144 123l-143 -123h-219z" />
<glyph unicode="&#xd5;" horiz-adv-x="1650" d="M92 709q0 164 54.5 302t152.5 237.5t233 155.5t297 56q184 0 320.5 -63.5t227.5 -167t136.5 -238.5t45.5 -280t-45.5 -279.5t-135.5 -237t-228 -164t-325 -61.5q-186 0 -324.5 62.5t-228.5 166t-135 236.5t-45 275zM319 707q2 -96 31 -189.5t90.5 -169.5t156.5 -122 t228 -46t229.5 44t158 117t90 168t28.5 198q0 98 -28.5 195t-90 174t-156.5 125t-227 50q-125 0 -220 -41t-159.5 -113.5t-97.5 -172.5t-33 -217zM508 1663q29 86 89 136t153 30q37 -10 70.5 -28.5t68.5 -31.5q35 -12 72.5 -6t54.5 60l135 -51q-10 -61 -35.5 -99.5 t-60.5 -58t-74 -22.5t-74 5q-37 10 -70.5 29t-68.5 31t-73 2t-62 -64z" />
<glyph unicode="&#xd6;" horiz-adv-x="1650" d="M92 709q0 164 54.5 302t152.5 237.5t233 155.5t297 56q184 0 320.5 -63.5t227.5 -167t136.5 -238.5t45.5 -280t-45.5 -279.5t-135.5 -237t-228 -164t-325 -61.5q-186 0 -324.5 62.5t-228.5 166t-135 236.5t-45 275zM319 707q2 -96 31 -189.5t90.5 -169.5t156.5 -122 t228 -46t229.5 44t158 117t90 168t28.5 198q0 98 -28.5 195t-90 174t-156.5 125t-227 50q-125 0 -220 -41t-159.5 -113.5t-97.5 -172.5t-33 -217zM457 1720q0 63 40 94t87 31t87 -30.5t40 -94.5q0 -63 -40 -95t-87 -32t-87 32t-40 95zM948 1720q0 63 40 94t88 31t88 -30.5 t40 -94.5q0 -63 -40 -95t-88 -32t-88 32t-40 95z" />
<glyph unicode="&#xd7;" horiz-adv-x="937" d="M123 436l215 213l-215 213l141 137l209 -217l213 215l123 -120l-217 -222l229 -229l-133 -127l-225 227l-213 -217z" />
<glyph unicode="&#xd8;" horiz-adv-x="1646" d="M92 709q0 164 54.5 302t152.5 237.5t233 155.5t297 56q184 0 320.5 -63.5t227.5 -167t136.5 -238.5t45.5 -280t-45.5 -279.5t-135.5 -237t-228 -164t-325 -61.5q-186 0 -324.5 62.5t-228.5 166t-135 236.5t-45 275zM201 -152l1020 1721l221 -2l-1018 -1719h-223zM319 707 q2 -96 31 -189.5t90.5 -169.5t156.5 -122t228 -46t229.5 44t158 117t90 168t28.5 198q0 98 -28.5 195t-90 174t-156.5 125t-227 50q-125 0 -220 -41t-159.5 -113.5t-97.5 -172.5t-33 -217z" />
<glyph unicode="&#xd9;" horiz-adv-x="1538" d="M160 594v838h227v-838q0 -98 26.5 -173t76 -126t116 -80t146.5 -31q86 -4 158.5 20.5t126 77t83 131.5t29.5 181v838h227v-838q0 -158 -49 -276.5t-133 -196.5t-198.5 -115t-243.5 -33q-121 2 -227.5 43t-188.5 118t-129 191.5t-47 268.5zM506 1864v8h254l151 -277v-10 h-190z" />
<glyph unicode="&#xda;" horiz-adv-x="1538" d="M160 594v838h227v-838q0 -98 26.5 -173t76 -126t116 -80t146.5 -31q86 -4 158.5 20.5t126 77t83 131.5t29.5 181v838h227v-838q0 -158 -49 -276.5t-133 -196.5t-198.5 -115t-243.5 -33q-121 2 -227.5 43t-188.5 118t-129 191.5t-47 268.5zM651 1593v11l152 270h254v-8 l-215 -273h-191z" />
<glyph unicode="&#xdb;" horiz-adv-x="1538" d="M160 594v838h227v-838q0 -98 26.5 -173t76 -126t116 -80t146.5 -31q86 -4 158.5 20.5t126 77t83 131.5t29.5 181v838h227v-838q0 -158 -49 -276.5t-133 -196.5t-198.5 -115t-243.5 -33q-121 2 -227.5 43t-188.5 118t-129 191.5t-47 268.5zM401 1597v13l301 278h123 l301 -278v-13h-219l-143 123l-143 -123h-220z" />
<glyph unicode="&#xdc;" horiz-adv-x="1538" d="M160 594v838h227v-838q0 -98 26.5 -173t76 -126t116 -80t146.5 -31q86 -4 158.5 20.5t126 77t83 131.5t29.5 181v838h227v-838q0 -158 -49 -276.5t-133 -196.5t-198.5 -115t-243.5 -33q-121 2 -227.5 43t-188.5 118t-129 191.5t-47 268.5zM397 1710q0 63 40 94t87 31 t87 -30.5t40 -94.5q0 -63 -40 -95t-87 -32t-87 32t-40 95zM889 1710q0 63 40 94t88 31t88 -30.5t40 -94.5q0 -63 -40 -95t-88 -32t-88 32t-40 95z" />
<glyph unicode="&#xdd;" horiz-adv-x="1404" d="M33 1423v11h272l395 -633l408 633h276v-11l-569 -835v-588h-229v588zM571 1587v10l152 271h254v-8l-215 -273h-191z" />
<glyph unicode="&#xde;" horiz-adv-x="1413" d="M178 0l2 1432h226v-238h438q170 0 283.5 -70.5t170 -177t56.5 -229.5t-56.5 -229.5t-170 -177t-283.5 -70.5h-436v-240h-230zM408 444h436q94 0 157.5 40t94 99.5t30.5 130t-31.5 130t-94 99.5t-156.5 40h-436v-539z" />
<glyph unicode="&#xdf;" horiz-adv-x="1267" d="M143 0v1055q0 100 41 176t107.5 126t150.5 74.5t172 24.5q92 0 177.5 -23.5t152 -72.5t105 -123t38.5 -174q0 -90 -57 -166t-164 -98q88 -20 149.5 -60.5t100.5 -92.5t55.5 -110.5t16.5 -113.5q0 -145 -59.5 -241.5t-157 -146.5t-222 -56.5t-255.5 30.5v195 q111 -35 197.5 -32t148 35t93.5 87t32 123q0 74 -31 126t-81 86t-113.5 50t-127.5 16h-116v201h108q41 0 87 7t84 26.5t63.5 52.5t25.5 82q2 57 -20.5 95t-58 60.5t-79.5 32t-88 9.5q-104 0 -171.5 -45.5t-73.5 -129.5q-6 -59 -6 -120v-383v-140.5t1 -152.5t1 -153v-136 h-226z" />
<glyph unicode="&#xe0;" d="M82 506q0 127 41 225t111.5 165t166 101.5t203.5 34.5q109 0 203 -48t141 -134l6 160h205v-1010h-201l-10 164q-25 -49 -64.5 -85t-87.5 -59.5t-98.5 -35t-97.5 -11.5q-111 0 -206 35t-163.5 102.5t-108.5 167t-40 228.5zM293 506q0 -78 25.5 -140.5t70.5 -105.5 t104.5 -66.5t127.5 -23.5q109 0 181 49t109 124t37 162t-37 161.5t-109 124t-181 49.5q-68 0 -127.5 -23.5t-104.5 -66.5t-70.5 -104.5t-25.5 -139.5zM381 1444v8h254l151 -276v-11h-190z" />
<glyph unicode="&#xe1;" d="M82 506q0 127 41 225t111.5 165t166 101.5t203.5 34.5q109 0 203 -48t141 -134l6 160h205v-1010h-201l-10 164q-25 -49 -64.5 -85t-87.5 -59.5t-98.5 -35t-97.5 -11.5q-111 0 -206 35t-163.5 102.5t-108.5 167t-40 228.5zM293 506q0 -78 25.5 -140.5t70.5 -105.5 t104.5 -66.5t127.5 -23.5q109 0 181 49t109 124t37 162t-37 161.5t-109 124t-181 49.5q-68 0 -127.5 -23.5t-104.5 -66.5t-70.5 -104.5t-25.5 -139.5zM502 1161v10l151 271h254v-8l-215 -273h-190z" />
<glyph unicode="&#xe2;" d="M82 506q0 127 41 225t111.5 165t166 101.5t203.5 34.5q109 0 203 -48t141 -134l6 160h205v-1010h-201l-10 164q-25 -49 -64.5 -85t-87.5 -59.5t-98.5 -35t-97.5 -11.5q-111 0 -206 35t-163.5 102.5t-108.5 167t-40 228.5zM293 506q0 -78 25.5 -140.5t70.5 -105.5 t104.5 -66.5t127.5 -23.5q109 0 181 49t109 124t37 162t-37 161.5t-109 124t-181 49.5q-68 0 -127.5 -23.5t-104.5 -66.5t-70.5 -104.5t-25.5 -139.5zM307 1169v13l301 278h123l301 -278v-13h-219l-143 123l-144 -123h-219z" />
<glyph unicode="&#xe3;" d="M82 506q0 127 41 225t111.5 165t166 101.5t203.5 34.5q109 0 203 -48t141 -134l6 160h205v-1010h-201l-10 164q-25 -49 -64.5 -85t-87.5 -59.5t-98.5 -35t-97.5 -11.5q-111 0 -206 35t-163.5 102.5t-108.5 167t-40 228.5zM293 506q0 -78 25.5 -140.5t70.5 -105.5 t104.5 -66.5t127.5 -23.5q109 0 181 49t109 124t37 162t-37 161.5t-109 124t-181 49.5q-68 0 -127.5 -23.5t-104.5 -66.5t-70.5 -104.5t-25.5 -139.5zM344 1290q29 86 89.5 136.5t152.5 29.5q37 -10 70.5 -28.5t68.5 -30.5t73 -6t54 59l135 -51q-10 -61 -35.5 -99 t-60.5 -57.5t-74 -22.5t-74 5q-37 10 -70.5 28.5t-68.5 30.5t-72.5 2t-62.5 -63z" />
<glyph unicode="&#xe4;" d="M82 506q0 127 41 225t111.5 165t166 101.5t203.5 34.5q109 0 203 -48t141 -134l6 160h205v-1010h-201l-10 164q-25 -49 -64.5 -85t-87.5 -59.5t-98.5 -35t-97.5 -11.5q-111 0 -206 35t-163.5 102.5t-108.5 167t-40 228.5zM293 506q0 -78 25.5 -140.5t70.5 -105.5 t104.5 -66.5t127.5 -23.5q109 0 181 49t109 124t37 162t-37 161.5t-109 124t-181 49.5q-68 0 -127.5 -23.5t-104.5 -66.5t-70.5 -104.5t-25.5 -139.5zM303 1325q0 63 40 94t87 31t87 -30.5t40 -94.5q0 -63 -40 -95t-87 -32t-87 32t-40 95zM795 1325q0 63 39.5 94t88 31 t88.5 -30.5t40 -94.5q0 -63 -40 -95t-88.5 -32t-88 32t-39.5 95z" />
<glyph unicode="&#xe5;" d="M82 506q0 127 41 225t111.5 165t166 101.5t203.5 34.5q109 0 203 -48t141 -134l6 160h205v-1010h-201l-10 164q-25 -49 -64.5 -85t-87.5 -59.5t-98.5 -35t-97.5 -11.5q-111 0 -206 35t-163.5 102.5t-108.5 167t-40 228.5zM293 506q0 -78 25.5 -140.5t70.5 -105.5 t104.5 -66.5t127.5 -23.5q109 0 181 49t109 124t37 162t-37 161.5t-109 124t-181 49.5q-68 0 -127.5 -23.5t-104.5 -66.5t-70.5 -104.5t-25.5 -139.5zM391 1343q0 55 20.5 98.5t56.5 70t81 41t96 14.5q49 0 96 -14.5t84 -41t59.5 -69.5t22.5 -99q0 -55 -21.5 -97t-56 -71.5 t-83 -44t-99.5 -14.5q-53 0 -98 14.5t-81 44t-56.5 72.5t-20.5 96zM528 1345.5q0 -38.5 29 -70.5t88 -32q61 0 91 32t30 70.5t-31 70.5t-90 32t-88 -32t-29 -70.5z" />
<glyph unicode="&#xe6;" horiz-adv-x="2072" d="M82 506q0 127 41 225t111.5 165t166 101.5t205.5 34.5q106 0 201.5 -48t144.5 -134l6 160h189v-148q68 94 163 134t201 40q121 0 221.5 -42t167 -119.5t93.5 -191.5t0 -257h-822q10 -63 40 -111.5t74 -81t99.5 -49t114.5 -16.5q86 0 170 26.5t137 81.5l127 -129 q-92 -98 -204.5 -135t-229.5 -37q-244 0 -354 170l-6 -145h-187l-2 160q-25 -49 -66.5 -84t-90 -57.5t-99.5 -34t-94 -11.5q-111 0 -206 34t-163.5 101.5t-108.5 167t-40 230.5zM295 506q0 -78 25.5 -140.5t69.5 -105.5t104.5 -66.5t128.5 -23.5q113 0 187.5 49t111 124 t36.5 162t-36.5 161.5t-111 124t-187.5 49.5q-68 0 -128.5 -23.5t-104.5 -66.5t-69.5 -104.5t-25.5 -139.5zM1176 604h622q0 61 -21.5 106.5t-60.5 76t-92 46t-117 15.5q-57 0 -111.5 -15.5t-99.5 -46t-76.5 -77t-43.5 -105.5z" />
<glyph unicode="&#xe7;" horiz-adv-x="1048" d="M82 504q0 131 42 230.5t114.5 166t169 100t206.5 33.5q104 0 193.5 -34.5t171.5 -114.5l-135 -142q-47 47 -107.5 69t-120.5 22q-68 0 -127 -24t-103 -67t-68.5 -103t-24.5 -136q0 -80 25.5 -140.5t69.5 -102.5t102.5 -62.5t123.5 -20.5q66 0 128.5 21.5t111.5 72.5 l143 -141q-86 -84 -179 -121t-204 -37q-109 0 -206 34t-169.5 100.5t-114.5 166t-42 230.5zM299 -381l94 82q23 -33 63 -53.5t81 -23.5t75.5 12.5t46.5 54.5q8 29 -7 51t-44.5 34.5t-67.5 11.5t-71 -19l-47 36l57 187h156l-29 -101q68 0 112 -21.5t66.5 -53t28.5 -71.5 t-2 -77q-18 -86 -82.5 -132t-143.5 -52t-158 27.5t-128 107.5z" />
<glyph unicode="&#xe8;" horiz-adv-x="1191" d="M82 510q0 115 39 212t108.5 166.5t167 108.5t215.5 39q123 0 222.5 -37.5t168 -113.5t100 -190.5t17.5 -268.5h-819q14 -117 102.5 -185.5t227.5 -68.5q78 0 162 27.5t131 81.5l137 -134q-39 -43 -90 -75.5t-107.5 -54t-118 -32t-118.5 -10.5q-125 0 -225.5 38 t-171 107.5t-109.5 169t-39 220.5zM305 604h613q-10 121 -90 182.5t-210 61.5q-117 0 -202.5 -61.5t-110.5 -182.5zM360 1430v8h254l152 -277v-10h-191z" />
<glyph unicode="&#xe9;" horiz-adv-x="1191" d="M82 510q0 115 39 212t108.5 166.5t167 108.5t215.5 39q123 0 222.5 -37.5t168 -113.5t100 -190.5t17.5 -268.5h-819q14 -117 102.5 -185.5t227.5 -68.5q78 0 162 27.5t131 81.5l137 -134q-39 -43 -90 -75.5t-107.5 -54t-118 -32t-118.5 -10.5q-125 0 -225.5 38 t-171 107.5t-109.5 169t-39 220.5zM305 604h613q-10 121 -90 182.5t-210 61.5q-117 0 -202.5 -61.5t-110.5 -182.5zM496 1159v10l151 271h254v-8l-215 -273h-190z" />
<glyph unicode="&#xea;" horiz-adv-x="1191" d="M82 510q0 115 39 212t108.5 166.5t167 108.5t215.5 39q123 0 222.5 -37.5t168 -113.5t100 -190.5t17.5 -268.5h-819q14 -117 102.5 -185.5t227.5 -68.5q78 0 162 27.5t131 81.5l137 -134q-39 -43 -90 -75.5t-107.5 -54t-118 -32t-118.5 -10.5q-125 0 -225.5 38 t-171 107.5t-109.5 169t-39 220.5zM264 1153v12l301 279h123l301 -279v-12h-219l-143 123l-144 -123h-219zM305 604h613q-10 121 -90 182.5t-210 61.5q-117 0 -202.5 -61.5t-110.5 -182.5z" />
<glyph unicode="&#xeb;" horiz-adv-x="1191" d="M82 510q0 115 39 212t108.5 166.5t167 108.5t215.5 39q123 0 222.5 -37.5t168 -113.5t100 -190.5t17.5 -268.5h-819q14 -117 102.5 -185.5t227.5 -68.5q78 0 162 27.5t131 81.5l137 -134q-39 -43 -90 -75.5t-107.5 -54t-118 -32t-118.5 -10.5q-125 0 -225.5 38 t-171 107.5t-109.5 169t-39 220.5zM270 1319q0 63 40 94t87 31t87 -31t40 -94t-40 -95t-87 -32t-87 32t-40 95zM305 604h613q-10 121 -90 182.5t-210 61.5q-117 0 -202.5 -61.5t-110.5 -182.5zM721 1319q0 63 40 94t88 31t88 -31t40 -94t-40 -95t-88 -32t-88 32t-40 95z" />
<glyph unicode="&#xec;" horiz-adv-x="507" d="M-14 1427v9h223l135 -275v-10h-188zM143 0v985h222v-985h-222z" />
<glyph unicode="&#xed;" horiz-adv-x="507" d="M131 1151v10l135 273h223v-9l-167 -274h-191zM143 0v985h222v-985h-222z" />
<glyph unicode="&#xee;" horiz-adv-x="507" d="M-68 1161v13l263 282h108l262 -282v-13h-192l-125 119l-125 -119h-191zM143 0v985h222v-985h-222z" />
<glyph unicode="&#xef;" horiz-adv-x="507" d="M-51 1325q0 63 40 94t87 31t87 -30.5t40 -94.5q0 -63 -40 -95t-87 -32t-87 32t-40 95zM143 0v985h222v-985h-222zM324 1325q0 63 39.5 94t88 31t88.5 -30.5t40 -94.5q0 -63 -40 -95t-88.5 -32t-88 32t-39.5 95z" />
<glyph unicode="&#xf0;" horiz-adv-x="1210" d="M82 487q0 86 26.5 170t81 152t136 114t190.5 60q84 10 175 -9.5t155 -78.5q-25 70 -84.5 131t-134 108.5t-155.5 80t-148 45.5l41 174q172 -31 312 -111t239.5 -198.5t152.5 -273.5t53 -337q0 -117 -34.5 -215t-102 -169t-164 -110.5t-219.5 -39.5q-131 0 -228.5 43 t-162 114.5t-97 162.5t-32.5 187zM299 489q0 -59 19.5 -116.5t57.5 -102.5t94 -71.5t132 -26.5t133.5 26.5t95 71.5t56 102.5t18.5 116.5t-18.5 116t-56 102t-95 71.5t-133.5 26.5t-132 -26.5t-94 -71.5t-57.5 -101.5t-19.5 -116.5zM442 1124l275 342l108 -77l-276 -334z " />
<glyph unicode="&#xf1;" horiz-adv-x="1249" d="M143 0v1012h193l12 -148q143 162 340 162q92 0 171 -31.5t137.5 -93t92 -152t33.5 -206.5v-543h-213v541q0 131 -70.5 210.5t-201.5 79.5q-63 0 -115.5 -23.5t-89.5 -65.5t-57.5 -97t-20.5 -117v-528h-211zM338 1288q25 84 80 133t139 29q35 -8 65.5 -26.5t63.5 -30.5 q31 -12 65.5 -6t49.5 59l125 -51q-10 -61 -34 -98t-55.5 -56.5t-67.5 -23t-67 5.5q-35 10 -65.5 28.5t-61.5 30.5q-33 12 -67.5 2t-56.5 -63z" />
<glyph unicode="&#xf2;" horiz-adv-x="1204" d="M80 504q0 111 37 207t105.5 166.5t164.5 111.5t213 41t213 -41t166 -111.5t107.5 -167t37.5 -206.5q0 -113 -36.5 -208t-105.5 -166t-166 -110.5t-216 -39.5t-215 39.5t-163.5 110.5t-104.5 166t-37 208zM291 504q0 -68 21.5 -127.5t61.5 -104.5t97 -70.5t129 -25.5 q74 0 131 25.5t97 70.5t61.5 104.5t21.5 127.5t-22.5 127t-63.5 105t-98 73t-127 27q-72 0 -129 -27t-97 -73t-61.5 -105.5t-21.5 -126.5zM319 1440v8h254l152 -266v-11h-190z" />
<glyph unicode="&#xf3;" horiz-adv-x="1204" d="M80 504q0 111 37 207t105.5 166.5t164.5 111.5t213 41t213 -41t166 -111.5t107.5 -167t37.5 -206.5q0 -113 -36.5 -208t-105.5 -166t-166 -110.5t-216 -39.5t-215 39.5t-163.5 110.5t-104.5 166t-37 208zM291 504q0 -68 21.5 -127.5t61.5 -104.5t97 -70.5t129 -25.5 q74 0 131 25.5t97 70.5t61.5 104.5t21.5 127.5t-22.5 127t-63.5 105t-98 73t-127 27q-72 0 -129 -27t-97 -73t-61.5 -105.5t-21.5 -126.5zM487 1167v11l150 268h252v-8l-213 -271h-189z" />
<glyph unicode="&#xf4;" horiz-adv-x="1204" d="M80 504q0 111 37 207t105.5 166.5t164.5 111.5t213 41t213 -41t166 -111.5t107.5 -167t37.5 -206.5q0 -113 -36.5 -208t-105.5 -166t-166 -110.5t-216 -39.5t-215 39.5t-163.5 110.5t-104.5 166t-37 208zM242 1186v12l301 279h123l301 -279v-12h-219l-144 123l-143 -123 h-219zM291 504q0 -68 21.5 -127.5t61.5 -104.5t97 -70.5t129 -25.5q74 0 131 25.5t97 70.5t61.5 104.5t21.5 127.5t-22.5 127t-63.5 105t-98 73t-127 27q-72 0 -129 -27t-97 -73t-61.5 -105.5t-21.5 -126.5z" />
<glyph unicode="&#xf5;" horiz-adv-x="1204" d="M80 504q0 111 37 207t105.5 166.5t164.5 111.5t213 41t213 -41t166 -111.5t107.5 -167t37.5 -206.5q0 -113 -36.5 -208t-105.5 -166t-166 -110.5t-216 -39.5t-215 39.5t-163.5 110.5t-104.5 166t-37 208zM291 504q0 -68 21.5 -127.5t61.5 -104.5t97 -70.5t129 -25.5 q74 0 131 25.5t97 70.5t61.5 104.5t21.5 127.5t-22.5 127t-63.5 105t-98 73t-127 27q-72 0 -129 -27t-97 -73t-61.5 -105.5t-21.5 -126.5zM299 1294q27 84 83 133.5t142 28.5q35 -10 66 -27.5t63 -29.5q33 -12 68 -6t51 57l125 -49q-10 -59 -33.5 -96t-55.5 -56.5t-69 -22.5 t-69 5q-33 10 -65 28.5t-64 28.5q-33 12 -68 3t-57 -62z" />
<glyph unicode="&#xf6;" horiz-adv-x="1204" d="M80 504q0 111 37 207t105.5 166.5t164.5 111.5t213 41t213 -41t166 -111.5t107.5 -167t37.5 -206.5q0 -113 -36.5 -208t-105.5 -166t-166 -110.5t-216 -39.5t-215 39.5t-163.5 110.5t-104.5 166t-37 208zM272 1325q0 63 40 94t87 31t87 -30.5t40 -94.5q0 -63 -40 -95 t-87 -32t-87 32t-40 95zM291 504q0 -68 21.5 -127.5t61.5 -104.5t97 -70.5t129 -25.5q74 0 131 25.5t97 70.5t61.5 104.5t21.5 127.5t-22.5 127t-63.5 105t-98 73t-127 27q-72 0 -129 -27t-97 -73t-61.5 -105.5t-21.5 -126.5zM707 1325q0 63 39.5 94t88 31t88.5 -30.5 t40 -94.5q0 -63 -40 -95t-88.5 -32t-88 32t-39.5 95z" />
<glyph unicode="&#xf7;" horiz-adv-x="1130" d="M119 582v192h893v-192h-893zM440 301q0 63 40 95t88 32t88 -31.5t40 -95.5q0 -63 -40 -95t-88 -32t-88 32t-40 95zM440 1030q0 63 40 94t88 31t88 -30.5t40 -94.5q0 -63 -40 -95t-88 -32t-88 32t-40 95z" />
<glyph unicode="&#xf8;" horiz-adv-x="1204" d="M80 504q0 111 37 207t105.5 166.5t164.5 111.5t213 41t213 -41t166 -111.5t107.5 -167t37.5 -206.5q0 -113 -36.5 -208t-105.5 -166t-166 -110.5t-216 -39.5t-215 39.5t-163.5 110.5t-104.5 166t-37 208zM129 -127l741 1251h203l-741 -1251h-203zM291 504 q0 -68 21.5 -127.5t61.5 -104.5t97 -70.5t129 -25.5q74 0 131 25.5t97 70.5t61.5 104.5t21.5 127.5t-22.5 127t-63.5 105t-98 73t-127 27q-72 0 -129 -27t-97 -73t-61.5 -105.5t-21.5 -126.5z" />
<glyph unicode="&#xf9;" horiz-adv-x="1247" d="M127 467v543h211v-541q0 -129 70.5 -210t203.5 -81q61 0 113.5 23.5t89.5 65.5t57.5 97.5t20.5 118.5v527h211v-1012h-191l-12 149q-74 -86 -158 -124.5t-190 -38.5q-92 0 -171 32.5t-135.5 94t-88 151.5t-31.5 205zM356 1430v8h254l152 -277v-10h-191z" />
<glyph unicode="&#xfa;" horiz-adv-x="1247" d="M127 467v543h211v-541q0 -129 70.5 -210t203.5 -81q61 0 113.5 23.5t89.5 65.5t57.5 97.5t20.5 118.5v527h211v-1012h-191l-12 149q-74 -86 -158 -124.5t-190 -38.5q-92 0 -171 32.5t-135.5 94t-88 151.5t-31.5 205zM498 1151v10l151 271h254v-9l-215 -272h-190z" />
<glyph unicode="&#xfb;" horiz-adv-x="1247" d="M127 467v543h211v-541q0 -129 70.5 -210t203.5 -81q61 0 113.5 23.5t89.5 65.5t57.5 97.5t20.5 118.5v527h211v-1012h-191l-12 149q-74 -86 -158 -124.5t-190 -38.5q-92 0 -171 32.5t-135.5 94t-88 151.5t-31.5 205zM289 1176v10l291 268h118l291 -268v-10h-211l-139 116 l-137 -116h-213z" />
<glyph unicode="&#xfc;" horiz-adv-x="1247" d="M127 467v543h211v-541q0 -129 70.5 -210t203.5 -81q61 0 113.5 23.5t89.5 65.5t57.5 97.5t20.5 118.5v527h211v-1012h-191l-12 149q-74 -86 -158 -124.5t-190 -38.5q-92 0 -171 32.5t-135.5 94t-88 151.5t-31.5 205zM264 1319q0 63 40 94t87 31t87 -31t40 -94t-40 -95 t-87 -32t-87 32t-40 95zM756 1319q0 63 40 94t88 31t88 -31t40 -94t-40 -95t-88 -32t-88 32t-40 95z" />
<glyph unicode="&#xfd;" horiz-adv-x="1142" d="M45 1010h246l174 -478l100 -286l109 282l200 482h236l-637 -1479h-233l209 483zM461 1167v11l141 256h240v-9l-203 -258h-178z" />
<glyph unicode="&#xfe;" horiz-adv-x="1304" d="M143 -422v1856h211l2 -586q53 88 153.5 135t203.5 47q109 0 202 -34.5t161.5 -101.5t107.5 -164t39 -226t-39 -228.5t-107.5 -165t-162 -99.5t-203.5 -34q-47 0 -96.5 10.5t-97.5 32t-89 57.5t-72 85v-584h-213zM375 504q0 -68 24.5 -126.5t67.5 -102.5t101 -68.5 t124 -24.5t124 21.5t101.5 62.5t68 100.5t24.5 137.5t-24.5 138t-68 101t-101.5 61.5t-124 20.5q-68 0 -125 -24.5t-100 -68.5t-67.5 -102.5t-24.5 -125.5z" />
<glyph unicode="&#xff;" horiz-adv-x="1142" d="M45 1010h246l174 -478l100 -286l109 282l200 482h236l-637 -1479h-233l209 483zM195 1327q0 63 38.5 94t86 31t87 -30.5t39.5 -94.5q0 -63 -39.5 -95t-87 -32t-86 32t-38.5 95zM682 1327q0 63 39 94t87 31t88 -30.5t40 -94.5q0 -63 -40 -95t-88 -32t-87 32t-39 95z" />
<glyph unicode="&#x152;" horiz-adv-x="2064" d="M94 723q0 156 45 290t136.5 233.5t228.5 155.5t319 56q59 0 113.5 -8t99.5 -16h910v-205h-701v-402h668v-204h-668v-416h709v-207h-920q-92 -27 -211 -27q-184 0 -321 59.5t-227.5 161t-135.5 238.5t-45 291zM324 719q0 -98 28.5 -193.5t86 -171t143.5 -125t200 -55.5 q135 -12 252 27v1028q-90 37 -209 37q-127 0 -221 -43t-156.5 -118t-93 -174.5t-30.5 -211.5z" />
<glyph unicode="&#x153;" horiz-adv-x="1988" d="M80 504q0 111 37 208t105.5 167.5t164.5 111.5t213 41q133 0 241.5 -59.5t168.5 -169.5q47 100 154.5 165.5t246.5 65.5q121 0 221.5 -36.5t168 -112.5t99 -190.5t17.5 -268.5h-811q12 -117 97 -185.5t224 -68.5q39 0 80 7t81 20.5t74 34t58 47.5l138 -134 q-39 -43 -89.5 -75.5t-107.5 -54t-117.5 -32t-118.5 -10.5q-147 0 -256.5 60.5t-169.5 171.5q-66 -111 -164 -169t-235 -58q-119 0 -215 39.5t-163.5 110.5t-104.5 166t-37 208zM291 504q0 -68 21.5 -127.5t61.5 -104.5t97 -70.5t129 -25.5q74 0 131 25.5t97 70.5 t60.5 104.5t20.5 127.5t-22.5 127t-63.5 105t-97 73t-126 27q-72 0 -129 -27t-97 -73t-61.5 -105.5t-21.5 -126.5zM1104 604h610q-10 121 -90 182.5t-207 61.5q-117 0 -202.5 -61.5t-110.5 -182.5z" />
<glyph unicode="&#x178;" horiz-adv-x="1404" d="M33 1423v11h272l395 -633l408 633h276v-11l-569 -835v-588h-229v588zM340 1702q0 61 39 90t83 29t83 -29t39 -90q0 -59 -39 -90t-83 -31t-83 31t-39 90zM809 1702q0 61 38 90t84 29t84 -29t38 -90q0 -59 -38 -90t-84 -31t-84 31t-38 90z" />
<glyph unicode="&#x2c6;" horiz-adv-x="862" d="M51 1165v13l301 278h123l301 -278v-13h-219l-143 123l-144 -123h-219z" />
<glyph unicode="&#x2dc;" horiz-adv-x="743" d="M57 1311q29 86 89.5 136t152.5 30q37 -10 70.5 -28.5t68.5 -31.5q35 -12 73 -6t54 59l135 -51q-10 -61 -35.5 -99t-60.5 -57.5t-73.5 -22.5t-73.5 5q-37 10 -71 28.5t-69 31.5q-35 12 -72.5 1.5t-62.5 -63.5z" />
<glyph unicode="&#x2000;" horiz-adv-x="944" />
<glyph unicode="&#x2001;" horiz-adv-x="1888" />
<glyph unicode="&#x2002;" horiz-adv-x="944" />
<glyph unicode="&#x2003;" horiz-adv-x="1888" />
<glyph unicode="&#x2004;" horiz-adv-x="629" />
<glyph unicode="&#x2005;" horiz-adv-x="472" />
<glyph unicode="&#x2006;" horiz-adv-x="314" />
<glyph unicode="&#x2007;" horiz-adv-x="314" />
<glyph unicode="&#x2008;" horiz-adv-x="236" />
<glyph unicode="&#x2009;" horiz-adv-x="377" />
<glyph unicode="&#x200a;" horiz-adv-x="104" />
<glyph unicode="&#x2010;" horiz-adv-x="1011" d="M133 498v190h746v-190h-746z" />
<glyph unicode="&#x2011;" horiz-adv-x="1011" d="M133 498v190h746v-190h-746z" />
<glyph unicode="&#x2012;" horiz-adv-x="1011" d="M133 498v190h746v-190h-746z" />
<glyph unicode="&#x2013;" horiz-adv-x="1220" d="M133 494v186h954v-186h-954z" />
<glyph unicode="&#x2014;" horiz-adv-x="1423" d="M133 494v188h1157v-188h-1157z" />
<glyph unicode="&#x2018;" horiz-adv-x="503" d="M96 1006l150 430h170l-97 -430h-223z" />
<glyph unicode="&#x2019;" horiz-adv-x="495" d="M106 1001l99 433h221l-150 -433h-170z" />
<glyph unicode="&#x201a;" horiz-adv-x="526" d="M68 -250l96 432h223l-149 -432h-170z" />
<glyph unicode="&#x201c;" horiz-adv-x="837" d="M102 999l152 433h170l-107 -433h-215zM442 999l136 433h170l-99 -433h-207z" />
<glyph unicode="&#x201d;" horiz-adv-x="811" d="M106 1006l99 428h207l-136 -428h-170zM432 1006l96 428h209l-135 -428h-170z" />
<glyph unicode="&#x201e;" horiz-adv-x="860" d="M68 -250l96 432h223l-149 -432h-170zM401 -250l97 432h223l-150 -432h-170z" />
<glyph unicode="&#x2022;" horiz-adv-x="804" d="M166 625q0 104 67.5 168.5t169.5 64.5q100 0 167 -64.5t67 -168.5t-67 -167t-167 -63q-102 0 -169.5 62.5t-67.5 167.5z" />
<glyph unicode="&#x2026;" horiz-adv-x="1374" d="M119 113q0 63 41 96t89 33t89 -33t41 -96q0 -66 -41 -98.5t-89 -32.5t-89 32.5t-41 98.5zM557 113q0 63 41 96t90 33t90 -33t41 -96q0 -66 -41 -98.5t-90 -32.5t-90 32.5t-41 98.5zM995 113q0 63 41 96t89.5 33t89 -33t40.5 -96q0 -66 -40.5 -98.5t-89 -32.5t-89.5 32.5 t-41 98.5z" />
<glyph unicode="&#x202f;" horiz-adv-x="377" />
<glyph unicode="&#x2039;" horiz-adv-x="675" d="M78 608l284 451h228v-2l-283 -449q141 -231 283 -454h-228z" />
<glyph unicode="&#x203a;" horiz-adv-x="677" d="M88 156l281 454l-281 449v2h225l285 -451l-285 -454h-225z" />
<glyph unicode="&#x205f;" horiz-adv-x="472" />
<glyph unicode="&#x20ac;" horiz-adv-x="1255" d="M88 485v172h113v50v30.5t2 30.5h-115v174h141q27 111 83.5 205t143.5 162.5t205.5 108.5t270.5 40q113 0 217 -31l-70 -204q-37 10 -73.5 14t-73.5 4q-188 0 -303 -82t-166 -217h489l-39 -174h-499q-2 -14 -2 -29.5v-29.5v-26.5t2 -25.5h467l-35 -172h-387 q47 -135 162.5 -217t310.5 -82q92 0 186 35l64 -213q-59 -18 -123 -27.5t-127 -9.5q-158 0 -277.5 38t-206 106.5t-141.5 163t-82 206.5h-137z" />
<glyph unicode="&#x2122;" horiz-adv-x="1660" d="M127 1296v138h563v-138h-201v-454h-157v454h-205zM809 840v594h154l192 -246l197 246h151v-594h-162l7 354q-41 -53 -88.5 -109.5t-88.5 -109.5h-34l-174 227l6 -362h-160z" />
<glyph unicode="&#x25fc;" horiz-adv-x="1013" d="M0 0v1014h1014v-1014h-1014z" />
<glyph unicode="&#xfb01;" horiz-adv-x="1255" d="M57 813v184h187v74q0 94 27.5 166t76.5 120t115.5 72.5t144.5 24.5q98 0 201 -53l-68 -166q-31 16 -59.5 25.5t-60.5 9.5q-72 0 -118 -47t-46 -152v-74h301v-184h-301v-813h-213v813h-187zM879 1307q0 66 41 97.5t90 31.5t90 -32t41 -97q0 -66 -41 -98.5t-90 -32.5 t-90 32.5t-41 98.5zM903 0v1014h213v-1014h-213z" />
<glyph unicode="&#xfb02;" horiz-adv-x="1265" d="M57 813v184h185v74q0 94 27.5 166t76.5 120t115.5 72.5t144.5 24.5q72 0 139 -24l-30 -183q-49 23 -97 23q-72 0 -117.5 -48t-45.5 -151v-74h264v-184h-264v-813h-213v813h-185zM901 0v1436h213v-1436h-213z" />
</font>
</defs>
</svg>
